<svg width="29" height="30" viewBox="0 0 29 30" fill="none" xmlns="http://www.w3.org/2000/svg">
<path d="M9.0625 27.1875C10.0635 27.1875 10.875 26.348 10.875 25.3125C10.875 24.277 10.0635 23.4375 9.0625 23.4375C8.06148 23.4375 7.25 24.277 7.25 25.3125C7.25 26.348 8.06148 27.1875 9.0625 27.1875Z" fill="#1F1F1F"/>
<path d="M20.8438 27.1875C21.8448 27.1875 22.6562 26.348 22.6562 25.3125C22.6562 24.277 21.8448 23.4375 20.8438 23.4375C19.8427 23.4375 19.0312 24.277 19.0312 25.3125C19.0312 26.348 19.8427 27.1875 20.8438 27.1875Z" fill="#1F1F1F"/>
<path d="M4.7918 8.4375H25.1145L22.1238 19.2656C22.0171 19.6586 21.7886 20.0045 21.4735 20.2501C21.1583 20.4956 20.7739 20.6274 20.3793 20.625H9.52695C9.13238 20.6274 8.74797 20.4956 8.43279 20.2501C8.11762 20.0045 7.88913 19.6586 7.78242 19.2656L3.68164 4.42969C3.62745 4.2337 3.51298 4.06132 3.35558 3.93867C3.19819 3.81602 3.00643 3.74979 2.80937 3.75H0.90625" stroke="#1F1F1F" stroke-width="1.6" stroke-linecap="round" stroke-linejoin="round"/>
</svg>
