<svg width="20" height="18" viewBox="0 0 20 18" fill="none" xmlns="http://www.w3.org/2000/svg">
<path d="M9.99998 16.6779C9.99998 16.6779 1.24597 11.7756 1.24597 5.8229C1.24597 4.77057 1.61057 3.75075 2.27774 2.93693C2.9449 2.12312 3.87342 1.5656 4.90532 1.35922C5.93721 1.15284 7.00874 1.31035 7.93759 1.80496C8.86644 2.29957 9.59523 3.10072 9.99998 4.0721V4.0721C10.4047 3.10072 11.1335 2.29957 12.0624 1.80496C12.9912 1.31035 14.0627 1.15284 15.0946 1.35922C16.1265 1.5656 17.0551 2.12312 17.7222 2.93693C18.3894 3.75075 18.754 4.77057 18.754 5.8229C18.754 11.7756 9.99998 16.6779 9.99998 16.6779Z" stroke="#1F1F1F" stroke-width="1.4" stroke-linecap="round" stroke-linejoin="round"/>
</svg>
