<svg width="77" height="14" viewBox="0 0 77 14" fill="none" xmlns="http://www.w3.org/2000/svg">
<path d="M13.7511 4.99282C13.6608 4.71364 13.4132 4.51536 13.1203 4.48896L9.14096 4.12763L7.56743 0.444636C7.4514 0.17472 7.18717 0 6.89358 0C6.6 0 6.33577 0.17472 6.21974 0.445267L4.64621 4.12763L0.666268 4.48896C0.373841 4.51599 0.126857 4.71364 0.0360782 4.99282C-0.0547002 5.27199 0.0291357 5.57819 0.250349 5.77122L3.25824 8.40916L2.37128 12.3162C2.30638 12.6035 2.41788 12.9004 2.65624 13.0727C2.78436 13.1653 2.93426 13.2124 3.08541 13.2124C3.21574 13.2124 3.34502 13.1773 3.46104 13.1079L6.89358 11.0564L10.3249 13.1079C10.5759 13.2589 10.8925 13.2451 11.1303 13.0727C11.3688 12.8999 11.4802 12.6028 11.4153 12.3162L10.5283 8.40916L13.5362 5.77174C13.7574 5.57819 13.8419 5.27251 13.7511 4.99282Z" fill="#FFC700"/>
<path d="M29.5078 4.99282C29.4175 4.71364 29.1699 4.51536 28.877 4.48896L24.8976 4.12763L23.3241 0.444636C23.2081 0.17472 22.9439 0 22.6503 0C22.3567 0 22.0924 0.17472 21.9764 0.445267L20.4029 4.12763L16.423 4.48896C16.1305 4.51599 15.8835 4.71364 15.7928 4.99282C15.702 5.27199 15.7858 5.57819 16.007 5.77122L19.0149 8.40916L18.128 12.3162C18.0631 12.6035 18.1746 12.9004 18.4129 13.0727C18.541 13.1653 18.6909 13.2124 18.8421 13.2124C18.9724 13.2124 19.1017 13.1773 19.2177 13.1079L22.6503 11.0564L26.0815 13.1079C26.3326 13.2589 26.6491 13.2451 26.887 13.0727C27.1254 12.8999 27.2368 12.6028 27.1719 12.3162L26.285 8.40916L29.2929 5.77174C29.5141 5.57819 29.5986 5.27251 29.5078 4.99282Z" fill="#FFC700"/>
<path d="M45.2644 4.99282C45.1742 4.71364 44.9266 4.51536 44.6336 4.48896L40.6543 4.12763L39.0808 0.444636C38.9647 0.17472 38.7005 0 38.4069 0C38.1133 0 37.8491 0.17472 37.7331 0.445267L36.1595 4.12763L32.1796 4.48896C31.8872 4.51599 31.6402 4.71364 31.5494 4.99282C31.4586 5.27199 31.5425 5.57819 31.7637 5.77122L34.7716 8.40916L33.8846 12.3162C33.8197 12.6035 33.9312 12.9004 34.1696 13.0727C34.2977 13.1653 34.4476 13.2124 34.5987 13.2124C34.7291 13.2124 34.8584 13.1773 34.9744 13.1079L38.4069 11.0564L41.8382 13.1079C42.0893 13.2589 42.4058 13.2451 42.6436 13.0727C42.8821 12.8999 42.9935 12.6028 42.9286 12.3162L42.0416 8.40916L45.0495 5.77174C45.2707 5.57819 45.3552 5.27251 45.2644 4.99282Z" fill="#FFC700"/>
<path d="M61.0211 4.99282C60.9309 4.71364 60.6832 4.51536 60.3903 4.48896L56.411 4.12763L54.8374 0.444636C54.7214 0.17472 54.4572 0 54.1636 0C53.87 0 53.6058 0.17472 53.4898 0.445267L51.9162 4.12763L47.9363 4.48896C47.6439 4.51599 47.3969 4.71364 47.3061 4.99282C47.2153 5.27199 47.2992 5.57819 47.5204 5.77122L50.5283 8.40916L49.6413 12.3162C49.5764 12.6035 49.6879 12.9004 49.9263 13.0727C50.0544 13.1653 50.2043 13.2124 50.3554 13.2124C50.4858 13.2124 50.615 13.1773 50.7311 13.1079L54.1636 11.0564L57.5949 13.1079C57.846 13.2589 58.1625 13.2451 58.4003 13.0727C58.6388 12.8999 58.7502 12.6028 58.6853 12.3162L57.7983 8.40916L60.8062 5.77174C61.0274 5.57819 61.1119 5.27251 61.0211 4.99282Z" fill="#FFC700"/>
<path d="M76.7778 4.99282C76.6875 4.71364 76.4399 4.51536 76.147 4.48896L72.1677 4.12763L70.5941 0.444636C70.4781 0.17472 70.2139 0 69.9203 0C69.6267 0 69.3625 0.17472 69.2464 0.445267L67.6729 4.12763L63.693 4.48896C63.4005 4.51599 63.1536 4.71364 63.0628 4.99282C62.972 5.27199 63.0558 5.57819 63.2771 5.77122L66.2849 8.40916L65.398 12.3162C65.3331 12.6035 65.4446 12.9004 65.6829 13.0727C65.8111 13.1653 65.961 13.2124 66.1121 13.2124C66.2424 13.2124 66.3717 13.1773 66.4877 13.1079L69.9203 11.0564L73.3516 13.1079C73.6027 13.2589 73.9192 13.2451 74.157 13.0727C74.3955 12.8999 74.5069 12.6028 74.442 12.3162L73.555 8.40916L76.5629 5.77174C76.7841 5.57819 76.8686 5.27251 76.7778 4.99282Z" fill="#FFC700"/>
</svg>
