<svg width="52" height="52" viewBox="0 0 52 52" fill="none" xmlns="http://www.w3.org/2000/svg">
<rect width="52" height="52" fill="white"/>
<path d="M41.9355 38.5806H33.5484V26H41.9355V38.5806Z" fill="#FFC700"/>
<path d="M40.2581 44.4517H48.6452V48.6452H40.2581V44.4517Z" fill="#FFC700"/>
<path d="M36.9032 33.5483H38.5806V38.5806H36.9032V33.5483Z" fill="#1F1F1F"/>
<path d="M49.4839 25.1613H26C24.6128 25.1613 23.4839 26.2902 23.4839 27.6774V45.2475C14.1625 44.8055 6.70968 37.1062 6.70968 27.6774C6.70968 17.966 14.6103 10.0645 24.3226 10.0645H30.1935V11.2672C30.1935 12.454 31.1589 13.4194 32.3457 13.4194C32.7357 13.4194 33.119 13.3128 33.4528 13.1124L40.8091 8.6991C41.5035 8.28226 41.9355 7.51987 41.9355 6.70968C41.9355 5.89948 41.5035 5.1371 40.8091 4.72026L33.4536 0.306968C33.119 0.106516 32.7365 0 32.3457 0C31.1589 0 30.1935 0.965355 30.1935 2.15213V3.35484H24.3226C10.9108 3.35484 0 14.2665 0 27.6774C0 41.0884 10.9108 52 24.3226 52H26H26.8387H49.4839C50.8711 52 52 50.8711 52 49.4839V27.6774C52 26.2902 50.8711 25.1613 49.4839 25.1613ZM1.67742 27.6774C1.67742 15.1907 11.8359 5.03226 24.3226 5.03226H31.871V2.15213C31.871 1.8049 32.2895 1.56419 32.5897 1.74535L39.9461 6.15865C40.1381 6.27355 40.2581 6.4849 40.2581 6.70968C40.2581 6.93445 40.1381 7.14581 39.9461 7.26071L32.5897 11.674C32.292 11.8552 31.871 11.6145 31.871 11.2672V8.3871H24.3226C13.6861 8.3871 5.03226 17.0401 5.03226 27.6774C5.03226 38.033 13.2348 46.5056 23.4839 46.9468V49.4839C23.4839 49.7732 23.5426 50.0466 23.6332 50.305C11.4652 49.9384 1.67742 39.9326 1.67742 27.6774ZM49.4839 50.3226H26.8387H26C25.5379 50.3226 25.1613 49.9468 25.1613 49.4839V33.5484H33.5484V31.871H25.1613V27.6774C25.1613 27.2145 25.5379 26.8387 26 26.8387H49.4839C49.946 26.8387 50.3226 27.2145 50.3226 27.6774V31.871H41.9355V33.5484H50.3226V49.4839C50.3226 49.9468 49.946 50.3226 49.4839 50.3226Z" fill="#1F1F1F"/>
<path d="M13.1736 20.8661L10.0645 23.9752V25.9999H15.0968V24.3225H12.0892L14.3595 22.0521C14.8351 21.5774 15.0968 20.945 15.0968 20.2732V20.1289C15.0968 18.7417 13.9679 17.6128 12.5806 17.6128C11.1934 17.6128 10.0645 18.7417 10.0645 20.1289V20.9676H11.7419V20.1289C11.7419 19.666 12.1185 19.2902 12.5806 19.2902C13.0428 19.2902 13.4194 19.666 13.4194 20.1289V20.2732C13.4194 20.4938 13.3296 20.7093 13.1736 20.8661Z" fill="#1F1F1F"/>
<path d="M16.7742 17.6128V22.6451H20.129V25.9999H21.8064V17.6128H20.129V20.9676H18.4516V17.6128H16.7742Z" fill="#1F1F1F"/>
<path d="M16.7742 36.9031V33.5482C16.7742 32.161 15.6453 31.0321 14.2581 31.0321C13.9628 31.0321 13.6827 31.0925 13.4194 31.1864V27.6772H11.7419V33.5482V36.9031H13.4194V33.5482C13.4194 33.0852 13.7959 32.7095 14.2581 32.7095C14.7202 32.7095 15.0968 33.0852 15.0968 33.5482V36.9031H16.7742Z" fill="#1F1F1F"/>
<path d="M20.1291 35.3616C20.1291 34.1371 20.9099 33.0544 22.0715 32.666L21.5406 31.0758C21.0131 31.252 20.5425 31.5254 20.1282 31.8617V31.0322H18.4508V35.3616V36.9032H20.1282V35.3616H20.1291Z" fill="#1F1F1F"/>
<path d="M43.6129 5.87109H45.2903V7.54851H43.6129V5.87109Z" fill="#1F1F1F"/>
<path d="M50.3226 5.87109H52V7.54851H50.3226V5.87109Z" fill="#1F1F1F"/>
<path d="M46.9678 5.87109H48.6452V7.54851H46.9678V5.87109Z" fill="#1F1F1F"/>
<path d="M40.2581 43.6128H48.6452V45.2902H40.2581V43.6128Z" fill="#1F1F1F"/>
<path d="M46.9678 46.9678H48.6452V48.6452H46.9678V46.9678Z" fill="#1F1F1F"/>
<path d="M43.6129 46.9678H45.2903V48.6452H43.6129V46.9678Z" fill="#1F1F1F"/>
<path d="M40.2581 46.9678H41.9355V48.6452H40.2581V46.9678Z" fill="#1F1F1F"/>
</svg>
