<svg width="52" height="52" viewBox="0 0 52 52" fill="none" xmlns="http://www.w3.org/2000/svg">
<rect width="52" height="52" fill="white"/>
<path d="M38.3844 28.6356H33.3777V26.1148C32.338 25.3312 31.7089 24.0988 31.7089 22.7945C31.7089 20.494 33.5805 18.6223 35.8811 18.6223C38.1816 18.6223 40.0533 20.494 40.0533 22.7945C40.0533 24.0988 39.4241 25.3321 38.3844 26.1148V28.6356Z" fill="#FFC700"/>
<path d="M10.0133 40.3179C6.79239 40.3179 4.17224 37.6978 4.17224 34.4768C4.17224 31.2559 6.79239 28.6357 10.0133 28.6357C13.2343 28.6357 15.8544 31.2559 15.8544 34.4768C15.8544 37.6978 13.2343 40.3179 10.0133 40.3179Z" fill="#FFC700"/>
<path d="M42.5566 15.6381V11.9465C42.5566 8.26581 39.5618 5.271 35.8811 5.271C32.2004 5.271 29.2055 8.26581 29.2055 11.9465V15.6381C27.7344 16.284 26.7022 17.7501 26.7022 19.4565V27.801C26.7022 30.1015 28.5739 31.9732 30.8744 31.9732H40.8877C43.1883 31.9732 45.06 30.1015 45.06 27.801V19.4565C45.06 17.7501 44.0278 16.284 42.5566 15.6381ZM30.8744 11.9465C30.8744 9.18537 33.1199 6.93988 35.8811 6.93988C38.6423 6.93988 40.8877 9.18537 40.8877 11.9465V15.2843H39.2189V11.9465C39.2189 10.1058 37.7219 8.60877 35.8811 8.60877C34.0403 8.60877 32.5433 10.1058 32.5433 11.9465V15.2843H30.8744V11.9465ZM37.55 15.2843H34.2122V11.9465C34.2122 11.0262 34.9607 10.2777 35.8811 10.2777C36.8015 10.2777 37.55 11.0262 37.55 11.9465V15.2843ZM43.3911 27.801C43.3911 29.1811 42.2679 30.3043 40.8877 30.3043H30.8744C29.4943 30.3043 28.3711 29.1811 28.3711 27.801V19.4565C28.3711 18.0764 29.4943 16.9532 30.8744 16.9532H40.8877C42.2679 16.9532 43.3911 18.0764 43.3911 19.4565V27.801Z" fill="#1F1F1F"/>
<path d="M51.7355 27.8011C51.7355 24.4459 49.3273 6.7448 49.2246 5.99297L49.1262 5.27118H48.3977C44.2922 5.27118 40.3136 3.79922 37.197 1.12733L35.8811 0L34.5651 1.12733C31.4485 3.79922 27.4699 5.27118 23.3644 5.27118H22.6359L22.5375 5.99297C22.4507 6.62715 20.7226 19.329 20.1852 25.2978H4.17222C1.87166 25.2978 0 27.1695 0 29.47V47.8278C0 50.1283 1.87166 52 4.17222 52H35.8811C38.1816 52 40.0533 50.1283 40.0533 47.8278V37.4398C47.7986 33.2526 51.7355 30.0091 51.7355 27.8011ZM23.0765 31.9734H20.0266V30.3045H21.2942C21.7606 30.8277 22.3531 31.3842 23.0765 31.9734ZM35.8811 50.3311H4.17222C2.79205 50.3311 1.66889 49.208 1.66889 47.8278V29.47C1.66889 28.0899 2.79205 26.9667 4.17222 26.9667H20.0567C20.0375 27.2988 20.0266 27.5825 20.0266 27.8011C20.0266 28.064 20.0884 28.3435 20.1994 28.6356H18.3578V33.6422H25.3454C26.1323 34.1771 27.0009 34.7329 27.9614 35.3111H18.3578V40.3178H36.7155V38.5972C37.2846 38.5346 37.8437 38.4027 38.3844 38.2158V47.8278C38.3844 49.208 37.2612 50.3311 35.8811 50.3311ZM32.2796 37.7494C33.1374 38.2067 34.0812 38.4912 35.0466 38.5972V38.6489H20.0266V36.98H30.8619C31.3208 37.2329 31.7923 37.489 32.2796 37.7494ZM38.6973 36.2766C36.9725 37.197 34.7904 37.197 33.0656 36.2766C25.211 32.086 21.6955 29.0002 21.6955 27.8011C21.6955 24.9257 23.6381 10.3279 24.0954 6.92588C28.3385 6.76149 32.4173 5.16687 35.6516 2.39485L35.8811 2.19792L36.1105 2.39485C39.3448 5.16687 43.4236 6.76149 47.6667 6.92588C48.124 10.3271 50.0666 24.9257 50.0666 27.8011C50.0666 29.0002 46.5511 32.086 38.6973 36.2766Z" fill="#1F1F1F"/>
<path d="M3.33777 48.6622H13.3511V43.6555H3.33777V48.6622ZM5.00666 45.3244H11.6822V46.9933H5.00666V45.3244Z" fill="#1F1F1F"/>
<path d="M15.02 48.6622H25.0333V43.6555H15.02V48.6622ZM16.6888 45.3244H23.3644V46.9933H16.6888V45.3244Z" fill="#1F1F1F"/>
<path d="M26.7022 48.6622H36.7155V43.6555H26.7022V48.6622ZM28.3711 45.3244H35.0466V46.9933H28.3711V45.3244Z" fill="#1F1F1F"/>
</svg>
