<svg width="52" height="52" viewBox="0 0 52 52" fill="none" xmlns="http://www.w3.org/2000/svg">
<rect width="52" height="52" fill="white"/>
<path d="M38.5806 10.0645C31.1815 10.0645 25.1613 16.0847 25.1613 23.4838V38.5806C25.1613 41.4926 26.5678 44.267 28.9237 46.004L29.099 46.1332C30.4812 42.2248 34.1984 39.4193 38.5806 39.4193H37.7419C33.1097 39.4193 29.3548 35.6644 29.3548 31.0322V24.3225C29.3548 22.8623 29.8211 21.5112 30.6129 20.4099C31.725 21.7837 33.4225 22.6451 35.2954 22.6451H47.5951C47.7326 23.181 47.8064 23.743 47.8064 24.3225V31.0322C47.8064 35.6644 44.0515 39.4193 39.4193 39.4193H38.5806C42.9629 39.4193 46.68 42.2248 48.0614 46.1332L48.2367 46.004C50.5934 44.267 52 41.4926 52 38.5806V23.4838C52 16.0847 45.9797 10.0645 38.5806 10.0645Z" fill="#FFC700"/>
<path d="M3.35486 44.4517H16.7742V47.8065H3.35486V44.4517Z" fill="#FFC700"/>
<path d="M8.38712 6.01453V5.87111C8.38712 4.48388 7.25821 3.35498 5.87099 3.35498C4.48376 3.35498 3.35486 4.48388 3.35486 5.87111V6.70982H5.03228V5.87111C5.03228 5.40898 5.40886 5.0324 5.87099 5.0324C6.33312 5.0324 6.7097 5.40898 6.7097 5.87111V6.01453C6.7097 6.23846 6.62247 6.44982 6.46395 6.60834L3.6006 9.47169C3.44292 9.62853 3.35486 9.8424 3.35486 10.0647V10.9034C3.35486 11.3663 3.7306 11.7421 4.19357 11.7421H8.38712V10.0647H5.3795L7.64989 7.79427C8.12544 7.31956 8.38712 6.68717 8.38712 6.01453Z" fill="#1F1F1F"/>
<path d="M14.2581 11.7419V10.0645H15.9355V8.38706H14.2581V4.19351C14.2581 3.82448 14.0157 3.49739 13.6626 3.39087C13.3095 3.28351 12.9271 3.42106 12.7216 3.72803L9.36674 8.76029C9.19481 9.01777 9.17887 9.34822 9.32481 9.6208C9.47074 9.89422 9.75506 10.0645 10.0645 10.0645H12.5807V11.7419H14.2581ZM11.6321 8.38706L12.5807 6.96377V8.38706H11.6321Z" fill="#1F1F1F"/>
<path d="M22.6452 11.7421V9.22595C22.6452 7.83872 21.5163 6.70982 20.129 6.70982C19.8338 6.70982 19.5537 6.77021 19.2903 6.86414V3.35498H17.6129V9.22595V11.7421H19.2903V9.22595C19.2903 8.76382 19.6669 8.38724 20.129 8.38724C20.5912 8.38724 20.9678 8.76382 20.9678 9.22595V11.7421H22.6452Z" fill="#1F1F1F"/>
<path d="M2.51613 15.0968H12.901L13.9712 17.2372C14.3453 17.9861 15.0976 18.4516 15.9355 18.4516C16.7734 18.4516 17.5257 17.9861 17.8997 17.238L18.9699 15.0968H28.1219C28.6092 14.4904 29.151 13.9326 29.7348 13.4194H17.9333L16.3993 16.4882C16.2223 16.8413 15.6486 16.8413 15.4725 16.4882L13.9377 13.4194H2.51613C2.054 13.4194 1.67742 13.0428 1.67742 12.5806V2.51613C1.67742 2.054 2.054 1.67742 2.51613 1.67742H29.3548C29.817 1.67742 30.1935 2.054 30.1935 2.51613V13.0252C30.7211 12.6016 31.283 12.2217 31.871 11.8803V2.51613C31.871 1.1289 30.7421 0 29.3548 0H2.51613C1.1289 0 0 1.1289 0 2.51613V12.5806C0 13.9679 1.1289 15.0968 2.51613 15.0968Z" fill="#1F1F1F"/>
<path d="M24.3226 6.70972V11.742H26.0001V10.9033C26.0001 9.97817 26.7524 9.22585 27.6775 9.22585H28.5162V7.54843H27.6775C27.0635 7.54843 26.4957 7.72623 26.0001 8.01475V6.70972H24.3226Z" fill="#1F1F1F"/>
<path d="M36.9032 26.8389C36.9032 25.4517 35.7743 24.3228 34.3871 24.3228C32.9999 24.3228 31.871 25.4517 31.871 26.8389C31.871 28.2261 32.9999 29.355 34.3871 29.355C35.7743 29.355 36.9032 28.2261 36.9032 26.8389ZM33.5484 26.8389C33.5484 26.3768 33.925 26.0002 34.3871 26.0002C34.8492 26.0002 35.2258 26.3768 35.2258 26.8389C35.2258 27.301 34.8492 27.6776 34.3871 27.6776C33.925 27.6776 33.5484 27.301 33.5484 26.8389Z" fill="#1F1F1F"/>
<path d="M42.7742 29.355C44.1614 29.355 45.2903 28.2261 45.2903 26.8389C45.2903 25.4517 44.1614 24.3228 42.7742 24.3228C41.387 24.3228 40.2581 25.4517 40.2581 26.8389C40.2581 28.2261 41.387 29.355 42.7742 29.355ZM42.7742 26.0002C43.2363 26.0002 43.6129 26.3768 43.6129 26.8389C43.6129 27.301 43.2363 27.6776 42.7742 27.6776C42.3121 27.6776 41.9355 27.301 41.9355 26.8389C41.9355 26.3768 42.3121 26.0002 42.7742 26.0002Z" fill="#1F1F1F"/>
<path d="M42.7742 32.7097H41.0968C41.0968 34.0969 39.9679 35.2258 38.5806 35.2258C37.1934 35.2258 36.0645 34.0969 36.0645 32.7097H34.3871C34.3871 35.022 36.2683 36.9033 38.5806 36.9033C40.893 36.9033 42.7742 35.022 42.7742 32.7097Z" fill="#1F1F1F"/>
<path d="M43.0107 39.53C46.3185 38.1269 48.6451 34.8458 48.6451 31.0322V24.3225C48.6451 21.6227 47.1883 19.1116 44.8432 17.768L44.0096 19.2232C45.0647 19.8279 45.879 20.7412 46.3865 21.8064H46.129H45.3599C42.8152 21.8064 40.6656 19.9847 40.2471 17.4745L38.5923 17.7504C38.8641 19.3817 39.691 20.7916 40.8594 21.8056H40.3276C37.783 21.8056 35.6334 19.9839 35.2149 17.4736L33.5601 17.7496C33.8318 19.3809 34.6588 20.7907 35.8271 21.8047H35.2954C33.0275 21.8047 31.0431 20.3546 30.3562 18.1958L28.7576 18.704C28.9589 19.3372 29.2567 19.9151 29.6123 20.4452C28.9061 21.6177 28.5161 22.9395 28.5161 24.3225V31.0322C28.5161 34.8458 30.8427 38.1269 34.1505 39.53C30.3419 41.2318 27.6774 45.0496 27.6774 49.4838V52H49.4838V49.4838C49.4838 45.0496 46.8192 41.2318 43.0107 39.53ZM40.3528 41.9354H36.8076C36.6759 41.4674 36.5652 40.9919 36.4687 40.5113C37.1481 40.3511 37.8534 40.258 38.5806 40.258C39.3078 40.258 40.0131 40.3511 40.6925 40.5113C40.5952 40.9919 40.4845 41.4674 40.3528 41.9354ZM39.7959 43.6129C39.4529 44.5061 39.0578 45.3775 38.5806 46.212C38.1042 45.3775 37.7092 44.5061 37.3653 43.6129H39.7959ZM37.7419 38.5806C33.5802 38.5806 30.1935 35.1947 30.1935 31.0322V24.3225C30.1935 23.4268 30.399 22.5621 30.7814 21.772C32.0009 22.8414 33.5802 23.4838 35.2954 23.4838H40.3276H41.0967H45.3599H46.129H46.9031C46.9434 23.7598 46.9677 24.0391 46.9677 24.3225V31.0322C46.9677 35.1939 43.581 38.5806 39.4193 38.5806H37.7419ZM47.8064 50.3225H44.6361L45.3305 46.8503L44.3635 44.9154L42.863 45.666L43.5734 47.086L42.9251 50.3225H34.2361L33.5886 47.0851L34.299 45.6652L32.7985 44.9145L31.8315 46.8494L32.5251 50.3225H29.3548V49.4838C29.3548 45.7247 31.6185 42.489 34.8509 41.0523C35.3977 43.6439 36.4142 46.0686 37.8828 48.2711C38.0388 48.5051 38.3005 48.6451 38.5806 48.6451C38.8607 48.6451 39.1224 48.5051 39.2784 48.2719C40.747 46.0694 41.7635 43.6447 42.3103 41.0531C45.5427 42.489 47.8064 45.7247 47.8064 49.4838V50.3225Z" fill="#1F1F1F"/>
<path d="M17.2925 32.6845L16.1494 32.2274C14.3193 31.4977 12.1646 31.9397 10.7732 33.3311L10.577 33.5274C9.44974 33.3806 8.55484 32.4857 8.40806 31.3585L8.60432 31.1622C9.54619 30.2212 10.0645 28.969 10.0645 27.6371C10.0645 27.0005 9.94458 26.3782 9.70806 25.7852L9.25097 24.6429C8.56155 22.9202 6.91684 21.8064 5.06077 21.8064C4.36465 21.8064 3.66684 21.9708 3.04284 22.2819C1.16581 23.2205 0 25.1067 0 27.2052V27.3276C0 27.5985 0.020129 27.8745 0.0612258 28.1487C1.13645 35.2836 6.65265 40.7998 13.7884 41.875C14.0601 41.9153 14.3361 41.9354 14.6078 41.9354H14.7294C16.8279 41.9354 18.7141 40.7696 19.6526 38.8926C19.9646 38.2694 20.129 37.5716 20.129 36.8747C20.129 35.0186 19.0152 33.3739 17.2925 32.6845ZM18.1522 38.1428C17.4997 39.4478 16.1879 40.258 14.7294 40.258H14.6078C14.4157 40.258 14.2254 40.2438 14.0375 40.2152C7.63561 39.2507 2.68555 34.3007 1.72019 27.8979C1.69168 27.7092 1.67742 27.5188 1.67742 27.3276V27.2052C1.67742 25.7458 2.48761 24.4349 3.79264 23.7824C4.18432 23.5878 4.62297 23.4838 5.06077 23.4838C6.22658 23.4838 7.26071 24.1833 7.69348 25.2661L8.15058 26.4084C8.30742 26.8018 8.3871 27.2152 8.3871 27.6371C8.3871 28.5211 8.04323 29.3514 7.41839 29.9763L6.70968 30.685V31.0322C6.70968 33.3445 8.5909 35.2258 10.9032 35.2258H11.2505L11.9592 34.517C12.8826 33.5928 14.3126 33.2984 15.5262 33.7848L16.6685 34.2411C17.7521 34.6747 18.4516 35.7088 18.4516 36.8747C18.4516 37.3125 18.3476 37.7511 18.1522 38.1428Z" fill="#1F1F1F"/>
<path d="M10.0646 21.8064H11.742V23.4838H10.0646V21.8064Z" fill="#1F1F1F"/>
<path d="M20.129 21.8064H21.8064V23.4838H20.129V21.8064Z" fill="#1F1F1F"/>
<path d="M13.4193 21.8064H15.0967V23.4838H13.4193V21.8064Z" fill="#1F1F1F"/>
<path d="M16.7742 21.8064H18.4516V23.4838H16.7742V21.8064Z" fill="#1F1F1F"/>
<path d="M3.35486 43.6128H16.7742V45.2902H3.35486V43.6128Z" fill="#1F1F1F"/>
<path d="M3.35486 46.9678H16.7742V48.6452H3.35486V46.9678Z" fill="#1F1F1F"/>
</svg>
