<svg width="52" height="52" viewBox="0 0 52 52" fill="none" xmlns="http://www.w3.org/2000/svg">
<rect width="52" height="52" fill="white"/>
<path d="M28.5161 35.2257V34.9808C28.5161 33.0786 28.2847 31.1906 27.8383 29.3547H24.1616C23.7152 31.1906 23.4838 33.0786 23.4838 34.9808V35.2257L21.8064 34.1077V51.1612H30.1935V34.1077L28.5161 35.2257Z" fill="#FFC700"/>
<path d="M17.1542 10.9777C17.9913 10.0571 18.4516 8.86418 18.4516 7.62045V7.5066C18.4516 4.75458 16.2131 2.51611 13.4611 2.51611C12.1285 2.51611 10.8754 3.03539 9.93265 3.97812L9.22581 4.68496L8.51897 3.97812C7.57624 3.03539 6.32309 2.51611 4.99049 2.51611C2.23847 2.51611 0 4.75458 0 7.5066V7.62045C0 8.86418 0.460308 10.0571 1.29738 10.9777L9.22581 19.6978L17.1542 10.9777ZM1.67742 7.62045V7.5066C1.67742 5.6797 3.16359 4.19353 4.99049 4.19353C5.87506 4.19353 6.70722 4.53835 7.33298 5.16411L9.22581 7.05694L11.1195 5.16411C11.7444 4.53835 12.5766 4.19353 13.4611 4.19353C15.288 4.19353 16.7742 5.6797 16.7742 7.5066V7.62045C16.7742 8.44646 16.4679 9.23849 15.913 9.84909L9.22581 17.2054L2.53865 9.84909C1.98375 9.23849 1.67742 8.44646 1.67742 7.62045Z" fill="#1F1F1F"/>
<path d="M47.0095 34.3871C45.6769 34.3871 44.4237 34.9064 43.481 35.8491L42.7742 36.5559L42.0681 35.8499C41.7786 35.5596 41.4465 35.3241 41.0967 35.1144V30.1935H42.7742C43.6993 30.1935 44.4516 29.4412 44.4516 28.5161V25.1613C44.4516 24.2362 43.6993 23.4839 42.7742 23.4839H38.4647C39.0864 22.5284 39.4193 21.4248 39.4193 20.2834V20.129C39.4193 18.866 39.0016 17.6154 38.2452 16.6071C37.1423 15.1361 35.3859 14.2581 33.5483 14.2581C31.7108 14.2581 29.9543 15.1361 28.8515 16.6071C28.1897 17.4896 27.6069 18.4356 27.1044 19.4169C26.749 19.3366 26.38 19.2903 26 19.2903C25.6199 19.2903 25.2509 19.3366 24.8946 19.416C24.3922 18.4356 23.8102 17.4888 23.1484 16.6063C22.0456 15.1361 20.2891 14.2581 18.4516 14.2581C16.614 14.2581 14.8576 15.1361 13.7547 16.6063C12.9983 17.6154 12.5806 18.866 12.5806 20.129V20.2834C12.5806 21.4248 12.9135 22.5284 13.5352 23.4839H9.22576C8.30064 23.4839 7.54834 24.2362 7.54834 25.1613V28.5161C7.54834 29.4412 8.30064 30.1935 9.22576 30.1935H10.9032V52H41.0967V49.7247L42.7742 51.5696L50.7026 42.8495C51.5397 41.9281 52 40.7352 52 39.4914V39.3776C52 36.6256 49.7615 34.3871 47.0095 34.3871ZM42.7742 28.5161H33.1003C32.6167 27.3183 31.9708 26.1904 31.1841 25.1613H42.7742V28.5161ZM19.7199 23.4839L17.7529 20.7462C17.6616 20.6086 17.6129 20.4485 17.6129 20.2834V20.129C17.6129 19.9488 17.6722 19.7699 17.7808 19.6257C18.0961 19.2047 18.8062 19.2047 19.1232 19.6274C19.6417 20.317 20.0987 21.0566 20.4804 21.8224L21.1188 23.1198C21.0893 23.2398 21.0643 23.3606 21.043 23.483H19.7199V23.4839ZM24.6858 25.1613C23.5207 27.8519 22.8364 30.7546 22.6795 33.6819L20.9677 32.5401L19.484 33.53L19.5999 32.4857C19.9042 29.7439 21.118 27.1598 23.0125 25.1621H24.6858V25.1613ZM26 26.3874C26.2809 27.0852 26.5323 27.7941 26.7441 28.5161H25.2558C25.4676 27.7941 25.719 27.0852 26 26.3874ZM27.3141 25.1613H28.9874C30.8819 27.1598 32.0958 29.7431 32.4 32.4848L32.5159 33.5291L31.0322 32.5401L29.3196 33.6819C29.1635 30.7546 28.4792 27.8519 27.3141 25.1613ZM30.8811 23.1206L31.5179 21.8273C31.902 21.0574 32.3591 20.3178 32.8775 19.6274C33.1937 19.2064 33.9038 19.2055 34.2191 19.6265C34.3277 19.7711 34.3871 19.9497 34.3871 20.1298V20.2842C34.3871 20.4493 34.3383 20.6106 34.263 20.7245L32.28 23.4839H30.9569C30.9356 23.3614 30.9106 23.2398 30.8811 23.1206ZM30.1935 17.6129C30.981 16.5629 32.235 15.9355 33.5483 15.9355C34.8617 15.9355 36.1157 16.5629 36.9032 17.6137C37.4442 18.3333 37.7419 19.2272 37.7419 20.129V20.2834C37.7419 21.1135 37.4978 21.9178 37.0375 22.6091L36.4543 23.4839H34.3445L35.641 21.6791C35.9187 21.2646 36.0645 20.7814 36.0645 20.2834V20.129C36.0645 19.5872 35.8859 19.052 35.5603 18.6187C35.0882 17.9888 34.3359 17.6129 33.5483 17.6129C32.7608 17.6129 32.0085 17.9897 31.5355 18.6203C30.9569 19.3911 30.4458 20.2179 30.015 21.0828L29.9502 21.2143C29.5923 20.7597 29.157 20.3706 28.6656 20.0619C29.1091 19.208 29.6165 18.3836 30.1935 17.6129ZM29.2356 23.4839H22.7643C23.139 22.0403 24.4417 20.9677 26 20.9677C27.5582 20.9677 28.8609 22.0403 29.2356 23.4839ZM14.9624 22.6091C14.5021 21.9178 14.258 21.1135 14.258 20.2834V20.129C14.258 19.2272 14.5557 18.3333 15.0967 17.6129C15.8842 16.5629 17.1382 15.9355 18.4516 15.9355C19.7649 15.9355 21.0189 16.5629 21.8064 17.6129C22.3834 18.3836 22.8908 19.208 23.3356 20.061C22.8437 20.3698 22.4084 20.7589 22.0505 21.2135L21.9833 21.0775C21.5541 20.2179 21.043 19.3902 20.4644 18.6203C19.9914 17.9897 19.2391 17.6129 18.4516 17.6129C17.664 17.6129 16.9117 17.9888 16.4396 18.6187C16.114 19.052 15.9354 19.5872 15.9354 20.129V20.2834C15.9354 20.7822 16.0812 21.2646 16.3749 21.7016L17.6554 23.4839H15.5456L14.9624 22.6091ZM9.22576 25.1613H20.8158C20.0291 26.1904 19.3832 27.3183 18.8996 28.5161H9.22576V25.1613ZM12.5806 50.3226V30.1935H18.3394C18.1547 30.884 18.013 31.5859 17.9331 32.3006L17.4192 36.9225L20.9677 34.5566L24.3225 36.7926V34.9809C24.3225 33.3731 24.5035 31.7669 24.8394 30.1935H27.1614C27.4972 31.7669 27.6782 33.3739 27.6782 34.9809V36.7926L31.033 34.5566L34.5816 36.9216L34.0676 32.2997C33.9878 31.5859 33.8461 30.8828 33.6614 30.1927H39.4193V50.3218H12.5806V50.3226ZM50.3225 39.4914C50.3225 40.3174 50.0162 41.1095 49.4613 41.7201L42.7742 49.0764L41.0967 47.2311V37.2505L42.7742 38.9279L44.6678 37.0351C45.2927 36.4093 46.1249 36.0645 47.0095 36.0645C48.8364 36.0645 50.3225 37.5507 50.3225 39.3776V39.4914Z" fill="#1F1F1F"/>
<path d="M34.3871 10.4118L29.4564 5.4811C28.8499 4.87459 28.5161 4.06864 28.5161 3.21069C28.5161 1.44071 29.9568 0 31.7268 0C32.5839 0 33.3907 0.333764 33.9972 0.940272L34.3871 1.33014L34.777 0.940272C35.3835 0.333764 36.1894 0 37.0474 0C38.8173 0 40.2581 1.44071 40.2581 3.21069C40.2581 4.06782 39.9243 4.87459 39.3178 5.4811L34.3871 10.4118Z" fill="#FFC700"/>
<path d="M5.03226 51.5085L0.766633 47.2429C0.279297 46.7556 0 46.0811 0 45.3919C0 43.9483 1.17411 42.7742 2.61769 42.7742C3.30692 42.7742 3.98141 43.0535 4.46875 43.5408L5.03226 44.1043L5.59577 43.5408C6.0831 43.0535 6.75759 42.7742 7.44683 42.7742C8.89041 42.7742 10.0645 43.9483 10.0645 45.3919C10.0645 46.0811 9.78522 46.7556 9.29788 47.2429L5.03226 51.5085Z" fill="#FFC700"/>
<path d="M46.9677 25.5085L42.7021 21.2429C42.2147 20.7556 41.9354 20.0811 41.9354 19.3919C41.9354 17.9483 43.1095 16.7742 44.5531 16.7742C45.2423 16.7742 45.9168 17.0535 46.4042 17.5408L46.9677 18.1043L47.5312 17.5408C48.0185 17.0535 48.693 16.7742 49.3823 16.7742C50.8258 16.7742 51.9999 17.9483 51.9999 19.3919C51.9999 20.0811 51.7206 20.7556 51.2333 21.2429L46.9677 25.5085Z" fill="#FFC700"/>
</svg>
