<svg width="45" height="28" viewBox="0 0 45 28" fill="none" xmlns="http://www.w3.org/2000/svg">
<g id="ApplePay">
<rect id="Rectangle" x="1.09998" y="0.5" width="43" height="27" rx="2.5" fill="#005EB8" stroke="white"/>
<path id="Path" d="M14.3846 10.2165C14.0649 10.6007 13.5533 10.9038 13.0418 10.8605C12.9778 10.341 13.2283 9.78901 13.5213 9.44809C13.8411 9.05304 14.4006 8.77165 14.8535 8.75C14.9068 9.29115 14.699 9.82148 14.3846 10.2165ZM14.8482 10.9633C14.1075 10.92 13.4734 11.3908 13.1217 11.3908C12.7647 11.3908 12.2265 10.985 11.6403 10.9958C10.8783 11.0066 10.1696 11.4449 9.78057 12.143C8.98126 13.5392 9.57275 15.6064 10.3454 16.7428C10.7238 17.3056 11.1767 17.9225 11.7735 17.9009C12.3384 17.8792 12.5622 17.5275 13.2442 17.5275C13.9317 17.5275 14.1288 17.9009 14.7256 17.89C15.3438 17.8792 15.7328 17.3272 16.1111 16.7645C16.5427 16.1259 16.7186 15.5036 16.7292 15.4711C16.7186 15.4603 15.5356 15.0003 15.5249 13.615C15.5143 12.4569 16.4575 11.9049 16.5001 11.8724C15.9672 11.0715 15.1359 10.985 14.8482 10.9633ZM19.1272 9.39397V17.8305H20.4167V14.9462H22.2019C23.8324 14.9462 24.9781 13.8098 24.9781 12.1647C24.9781 10.5196 23.8538 9.39397 22.2445 9.39397H19.1272ZM20.4167 10.4979H21.9034C23.0225 10.4979 23.6619 11.104 23.6619 12.1701C23.6619 13.2361 23.0225 13.8476 21.8981 13.8476H20.4167V10.4979ZM27.3334 17.8955C28.1434 17.8955 28.8947 17.4788 29.2358 16.8186H29.2624V17.8305H30.4561V13.6312C30.4561 12.4136 29.4969 11.6289 28.0208 11.6289C26.6513 11.6289 25.6389 12.4244 25.6016 13.5175H26.7632C26.8592 12.998 27.3334 12.6571 27.9835 12.6571C28.7722 12.6571 29.2145 13.0305 29.2145 13.7178V14.1832L27.6052 14.2806C26.1078 14.3726 25.2978 14.9949 25.2978 16.0772C25.2978 17.1703 26.1345 17.8955 27.3334 17.8955ZM27.6798 16.8943C26.9924 16.8943 26.5554 16.5588 26.5554 16.0447C26.5554 15.5144 26.9764 15.2059 27.781 15.1572L29.2145 15.0652V15.5414C29.2145 16.3315 28.5537 16.8943 27.6798 16.8943ZM32.0494 20.125C33.3069 20.125 33.8984 19.638 34.4153 18.1606L36.68 11.7101H35.3692L33.8505 16.6941H33.8238L32.3051 11.7101H30.957L33.1417 17.8522L33.0245 18.2256C32.8273 18.8587 32.5076 19.1022 31.9375 19.1022C31.8362 19.1022 31.639 19.0914 31.5591 19.0806V20.0925C31.6337 20.1142 31.9534 20.125 32.0494 20.125Z" fill="white"/>
</g>
</svg>
