<svg width="44" height="28" viewBox="0 0 44 28" fill="none" xmlns="http://www.w3.org/2000/svg">
<g id="Google Pay">
<rect id="Rectangle" x="0.5" y="0.5" width="43" height="27" rx="2.5" fill="#005EB8" stroke="white"/>
<g id="Group">
<path id="Vector" d="M21.2377 14.1822V17.4414H20.1979V9.39263H22.9558C23.285 9.38579 23.6123 9.44385 23.9188 9.56344C24.2253 9.68303 24.5049 9.8618 24.7416 10.0894C24.9807 10.3032 25.1709 10.5654 25.2996 10.8584C25.4283 11.1514 25.4924 11.4684 25.4876 11.7881C25.4944 12.1094 25.4313 12.4285 25.3026 12.7233C25.1738 13.0182 24.9825 13.2819 24.7416 13.4963C24.2594 13.9536 23.6641 14.182 22.9558 14.1816H21.2377V14.1822ZM21.2377 10.3836V13.1932H22.9816C23.1728 13.1988 23.363 13.1647 23.5402 13.0931C23.7174 13.0214 23.8775 12.9138 24.0105 12.7771C24.1427 12.6492 24.2478 12.4963 24.3196 12.3274C24.3914 12.1584 24.4284 11.9769 24.4284 11.7935C24.4284 11.6101 24.3914 11.4286 24.3196 11.2597C24.2478 11.0907 24.1427 10.9378 24.0105 10.81C23.8792 10.6704 23.7196 10.5601 23.5422 10.4865C23.3648 10.4128 23.1737 10.3775 22.9816 10.3829H21.2377V10.3836Z" fill="white"/>
<path id="Vector_2" d="M27.8838 11.7549C28.6524 11.7549 29.2591 11.9591 29.7039 12.3675C30.1487 12.776 30.3709 13.336 30.3704 14.0476V17.4416H29.3758V16.6774H29.3306C28.9 17.3068 28.3273 17.6214 27.6125 17.6214C27.0024 17.6214 26.4919 17.4416 26.0812 17.082C25.884 16.9169 25.7264 16.7102 25.6198 16.4769C25.5132 16.2436 25.4603 15.9896 25.465 15.7334C25.465 15.1635 25.6816 14.7103 26.1148 14.3738C26.5479 14.0373 27.1262 13.8686 27.8496 13.8677C28.467 13.8677 28.9756 13.9801 29.3751 14.2049V13.9686C29.3763 13.7939 29.3384 13.6212 29.2641 13.4629C29.1898 13.3046 29.081 13.1647 28.9456 13.0534C28.6706 12.8067 28.3123 12.6721 27.9419 12.6764C27.3611 12.6764 26.9014 12.9201 26.563 13.4073L25.6471 12.8338C26.1509 12.1145 26.8965 11.7549 27.8838 11.7549ZM26.5385 15.7558C26.5378 15.8874 26.5687 16.0173 26.6287 16.1346C26.6887 16.2519 26.776 16.3532 26.8833 16.4301C27.1133 16.61 27.3988 16.7053 27.6913 16.6999C28.1301 16.6991 28.5508 16.5255 28.861 16.2169C29.2055 15.8945 29.3777 15.5163 29.3777 15.0822C29.0535 14.8253 28.6014 14.6968 28.0214 14.6968C27.599 14.6968 27.2468 14.7981 26.9647 15.0006C26.6799 15.2061 26.5385 15.4559 26.5385 15.7558Z" fill="white"/>
<path id="Vector_3" d="M36.0799 11.9346L32.6076 19.869H31.5342L32.8227 17.0928L30.5396 11.9346H31.6698L33.32 15.8906H33.3427L34.9477 11.9346H36.0799Z" fill="white"/>
<g id="Group_2">
<path id="Vector_4" d="M17.0357 13.4793C17.036 13.1642 17.0093 12.8496 16.9556 12.5391H12.5701V14.3199H15.0819C15.0305 14.6043 14.9217 14.8755 14.7621 15.117C14.6024 15.3584 14.3953 15.5653 14.1531 15.725V16.881H15.6522C16.5299 16.0763 17.0357 14.8863 17.0357 13.4793Z" fill="white"/>
<path id="Vector_5" d="M12.5701 17.9982C13.825 17.9982 14.8817 17.5885 15.6522 16.882L14.1531 15.7261C13.7359 16.0074 13.1985 16.1679 12.5701 16.1679C11.3571 16.1679 10.3276 15.3549 9.95945 14.2593H8.41516V15.4506C8.80221 16.2164 9.39572 16.8602 10.1294 17.31C10.8631 17.7599 11.7081 17.9982 12.5701 17.9982Z" fill="white"/>
<path id="Vector_6" d="M9.95951 14.2591C9.76488 13.685 9.76488 13.0632 9.95951 12.4891V11.2979H8.41522C8.08962 11.9421 7.92004 12.6531 7.92004 13.3741C7.92004 14.0951 8.08962 14.8061 8.41522 15.4504L9.95951 14.2591Z" fill="white"/>
<path id="Vector_7" d="M12.5701 10.5806C13.2333 10.5698 13.8741 10.819 14.354 11.2742L15.6813 9.95444C14.8396 9.16843 13.7247 8.73689 12.5701 8.7503C11.7081 8.75034 10.8631 8.9886 10.1294 9.43847C9.39572 9.88834 8.80221 10.5321 8.41516 11.2979L9.95945 12.4892C10.3276 11.3936 11.3571 10.5806 12.5701 10.5806Z" fill="white"/>
</g>
</g>
</g>
</svg>
