<svg width="35" height="35" viewBox="0 0 35 35" fill="none" xmlns="http://www.w3.org/2000/svg">
<g id="&#208;&#152;&#208;&#189;&#209;&#129;&#209;&#130;&#208;&#176;">
<circle id="Ellipse 583" cx="17.9474" cy="17.0526" r="16.5526" fill="#005EB8" stroke="white"/>
<path id="Vector" d="M15.7561 17.2758C15.7561 15.9422 16.837 14.8608 18.1707 14.8608C19.5043 14.8608 20.5858 15.9422 20.5858 17.2758C20.5858 18.6095 19.5043 19.6909 18.1707 19.6909C16.837 19.6909 15.7561 18.6095 15.7561 17.2758ZM14.4505 17.2758C14.4505 19.3304 16.116 20.9958 18.1707 20.9958C20.2253 20.9958 21.8908 19.3304 21.8908 17.2758C21.8908 15.2213 20.2253 13.5558 18.1707 13.5558C16.116 13.5558 14.4505 15.2213 14.4505 17.2758ZM21.1687 13.4083C21.1686 13.5803 21.2196 13.7484 21.315 13.8914C21.4105 14.0344 21.5462 14.1459 21.7051 14.2117C21.8639 14.2776 22.0387 14.2949 22.2074 14.2614C22.376 14.2279 22.531 14.1452 22.6526 14.0236C22.7742 13.9021 22.8571 13.7472 22.8907 13.5786C22.9243 13.41 22.9072 13.2352 22.8414 13.0763C22.7757 12.9174 22.6643 12.7816 22.5214 12.686C22.3784 12.5904 22.2104 12.5394 22.0384 12.5393H22.0381C21.8076 12.5394 21.5866 12.631 21.4236 12.7939C21.2606 12.9569 21.1689 13.1779 21.1687 13.4083ZM15.2437 23.1728C14.5374 23.1406 14.1535 23.0229 13.8983 22.9235C13.5601 22.7919 13.3187 22.635 13.065 22.3816C12.8112 22.1283 12.6542 21.8872 12.5231 21.5489C12.4236 21.2939 12.306 20.9099 12.2738 20.2036C12.2387 19.4399 12.2317 19.2105 12.2317 17.2759C12.2317 15.3412 12.2393 15.1125 12.2738 14.3482C12.306 13.6419 12.4245 13.2586 12.5231 13.0029C12.6548 12.6646 12.8116 12.4233 13.065 12.1696C13.3184 11.9158 13.5595 11.7588 13.8983 11.6277C14.1533 11.5282 14.5374 11.4106 15.2437 11.3785C16.0074 11.3433 16.2368 11.3363 18.1707 11.3363C20.1045 11.3363 20.3341 11.3439 21.0985 11.3785C21.8048 11.4106 22.1881 11.5291 22.4439 11.6277C22.7821 11.7588 23.0234 11.9162 23.2772 12.1696C23.5309 12.4229 23.6874 12.6646 23.8191 13.0029C23.9186 13.2579 24.0362 13.6419 24.0683 14.3482C24.1035 15.1125 24.1105 15.3412 24.1105 17.2759C24.1105 19.2105 24.1035 19.4393 24.0683 20.2036C24.0362 20.9099 23.9179 21.2938 23.8191 21.5489C23.6874 21.8872 23.5306 22.1285 23.2772 22.3816C23.0238 22.6348 22.7821 22.7919 22.4439 22.9235C22.1888 23.023 21.8048 23.1406 21.0985 23.1728C20.3348 23.2079 20.1054 23.2149 18.1707 23.2149C16.2359 23.2149 16.0072 23.2079 15.2437 23.1728ZM15.1837 10.0751C14.4125 10.1102 13.8855 10.2325 13.4252 10.4116C12.9486 10.5966 12.545 10.8447 12.1418 11.2472C11.7386 11.6498 11.4911 12.0539 11.3062 12.5306C11.1271 12.9911 11.0048 13.5178 10.9697 14.289C10.934 15.0615 10.9258 15.3084 10.9258 17.2758C10.9258 19.2432 10.934 19.4902 10.9697 20.2626C11.0048 21.0339 11.1271 21.5606 11.3062 22.0211C11.4911 22.4974 11.7387 22.902 12.1418 23.3044C12.545 23.7068 12.9486 23.9546 13.4252 24.14C13.8863 24.3191 14.4125 24.4414 15.1837 24.4765C15.9566 24.5117 16.2032 24.5204 18.1707 24.5204C20.1381 24.5204 20.3851 24.5122 21.1576 24.4765C21.9289 24.4414 22.4556 24.3191 22.9161 24.14C23.3925 23.9546 23.7963 23.707 24.1995 23.3044C24.6027 22.9019 24.8497 22.4974 25.0351 22.0211C25.2142 21.5606 25.3371 21.0339 25.3717 20.2626C25.4068 19.4896 25.4149 19.2432 25.4149 17.2758C25.4149 15.3084 25.4068 15.0615 25.3717 14.289C25.3365 13.5177 25.2142 12.9908 25.0351 12.5306C24.8497 12.0542 24.6021 11.6504 24.1995 11.2472C23.7969 10.844 23.3925 10.5966 22.9167 10.4116C22.4556 10.2325 21.9288 10.1097 21.1582 10.0751C20.3857 10.04 20.1387 10.0312 18.1712 10.0312C16.2038 10.0312 15.9566 10.0394 15.1837 10.0751Z" fill="white"/>
</g>
</svg>
