<svg width="44" height="28" viewBox="0 0 44 28" fill="none" xmlns="http://www.w3.org/2000/svg">
<g id="&#208;&#156;&#208;&#176;&#209;&#129;&#209;&#130;&#208;&#181;&#209;&#128;&#208;&#186;&#208;&#176;&#209;&#128;&#208;&#180;">
<rect id="Rectangle" x="0.5" y="0.5" width="43" height="27" rx="2.5" fill="#005EB8" stroke="white"/>
<g id="Group">
<g id="Group_2" opacity="0.6">
<path id="Vector" opacity="0.7" d="M25.6101 19.7009H19.3893V8.521H25.6101V19.7009Z" fill="white"/>
<g id="Group_3">
<path id="Vector_2" d="M19.7877 14.11C19.7877 11.8421 20.8496 9.82193 22.5032 8.52005C21.2939 7.56804 19.7678 6.99982 18.1093 6.99982C14.1828 6.99982 11 10.1831 11 14.11C11 18.0369 14.1828 21.2202 18.1093 21.2202C19.7678 21.2202 21.2939 20.652 22.5032 19.7C20.8496 18.3981 19.7877 16.3779 19.7877 14.11Z" fill="white"/>
</g>
<g id="Group_4">
<path id="Vector_3" d="M33.9999 14.11C33.9999 18.0369 30.8171 21.2202 26.8907 21.2202C25.2321 21.2202 23.706 20.652 22.4963 19.7C24.1504 18.3981 25.2122 16.3779 25.2122 14.11C25.2122 11.8421 24.1504 9.82193 22.4963 8.52005C23.706 7.56804 25.2321 6.99982 26.8907 6.99982C30.8171 6.99982 33.9999 10.1831 33.9999 14.11Z" fill="white"/>
</g>
</g>
<g id="Group_5">
<path id="Vector_4" d="M16.3497 14.1551C16.3497 13.8445 16.5533 13.5894 16.8858 13.5894C17.2036 13.5894 17.4181 13.8335 17.4181 14.1551C17.4181 14.4767 17.2036 14.7208 16.8858 14.7208C16.5533 14.7208 16.3497 14.4657 16.3497 14.1551ZM17.7803 14.1551V13.2716H17.3961V13.4861C17.2743 13.3271 17.0893 13.2272 16.838 13.2272C16.3425 13.2272 15.9541 13.6156 15.9541 14.1551C15.9541 14.695 16.3425 15.083 16.838 15.083C17.0893 15.083 17.2743 14.9832 17.3961 14.8241V15.0386H17.7803V14.1551ZM30.7634 14.1551C30.7634 13.8445 30.9669 13.5894 31.2995 13.5894C31.6177 13.5894 31.8318 13.8335 31.8318 14.1551C31.8318 14.4767 31.6177 14.7208 31.2995 14.7208C30.9669 14.7208 30.7634 14.4657 30.7634 14.1551ZM32.1944 14.1551V12.562H31.8098V13.4861C31.6879 13.3271 31.503 13.2272 31.2517 13.2272C30.7562 13.2272 30.3678 13.6156 30.3678 14.1551C30.3678 14.695 30.7562 15.083 31.2517 15.083C31.503 15.083 31.6879 14.9832 31.8098 14.8241V15.0386H32.1944V14.1551ZM22.5493 13.5712C22.7968 13.5712 22.9559 13.7265 22.9966 13.9998H22.0796C22.1207 13.7447 22.2756 13.5712 22.5493 13.5712ZM22.5569 13.2272C22.039 13.2272 21.6768 13.6042 21.6768 14.1551C21.6768 14.717 22.0538 15.083 22.5827 15.083C22.8489 15.083 23.0926 15.0166 23.3071 14.8355L23.1188 14.5507C22.9707 14.6688 22.782 14.7356 22.6047 14.7356C22.3572 14.7356 22.1317 14.621 22.0763 14.3028H23.3884C23.3922 14.255 23.396 14.2067 23.396 14.1551C23.3922 13.6042 23.052 13.2272 22.5569 13.2272ZM27.196 14.1551C27.196 13.8445 27.3996 13.5894 27.7321 13.5894C28.0499 13.5894 28.2644 13.8335 28.2644 14.1551C28.2644 14.4767 28.0499 14.7208 27.7321 14.7208C27.3996 14.7208 27.196 14.4657 27.196 14.1551ZM28.6266 14.1551V13.2716H28.2424V13.4861C28.1201 13.3271 27.9357 13.2272 27.6843 13.2272C27.1888 13.2272 26.8004 13.6156 26.8004 14.1551C26.8004 14.695 27.1888 15.083 27.6843 15.083C27.9357 15.083 28.1201 14.9832 28.2424 14.8241V15.0386H28.6266V14.1551ZM25.0263 14.1551C25.0263 14.6912 25.3995 15.083 25.969 15.083C26.2351 15.083 26.4124 15.0238 26.6045 14.8723L26.42 14.5617C26.2757 14.6654 26.1243 14.7208 25.9576 14.7208C25.6508 14.717 25.4253 14.4953 25.4253 14.1551C25.4253 13.8149 25.6508 13.5932 25.9576 13.5894C26.1243 13.5894 26.2757 13.6448 26.42 13.7485L26.6045 13.4379C26.4124 13.2864 26.2351 13.2272 25.969 13.2272C25.3995 13.2272 25.0263 13.619 25.0263 14.1551ZM29.9798 13.2272C29.758 13.2272 29.6138 13.3309 29.5139 13.4861V13.2716H29.1331V15.0386H29.5177V14.0481C29.5177 13.7557 29.6434 13.5932 29.8947 13.5932C29.9726 13.5932 30.0538 13.6042 30.135 13.6376L30.2535 13.2754C30.1685 13.242 30.0576 13.2272 29.9798 13.2272ZM19.6805 13.4121C19.4956 13.2902 19.2409 13.2272 18.96 13.2272C18.5123 13.2272 18.2242 13.4417 18.2242 13.7929C18.2242 14.0811 18.4387 14.2588 18.8339 14.3142L19.0154 14.34C19.2261 14.3696 19.3255 14.4251 19.3255 14.5249C19.3255 14.6616 19.1851 14.7394 18.9227 14.7394C18.6566 14.7394 18.4645 14.6544 18.335 14.5545L18.1539 14.8537C18.3646 15.009 18.6308 15.083 18.9189 15.083C19.4292 15.083 19.725 14.8427 19.725 14.5063C19.725 14.1957 19.4923 14.0332 19.1076 13.9778L18.9265 13.9516C18.7603 13.9296 18.627 13.8966 18.627 13.7781C18.627 13.6486 18.7526 13.5712 18.9634 13.5712C19.1889 13.5712 19.4072 13.6562 19.5143 13.7227L19.6805 13.4121ZM24.6378 13.2272C24.4161 13.2272 24.2718 13.3309 24.1724 13.4861V13.2716H23.7916V15.0386H24.1758V14.0481C24.1758 13.7557 24.3015 13.5932 24.5528 13.5932C24.6306 13.5932 24.7119 13.6042 24.7931 13.6376L24.9116 13.2754C24.8266 13.242 24.7157 13.2272 24.6378 13.2272ZM21.3591 13.2716H20.7307V12.7355H20.3423V13.2716H19.9839V13.6228H20.3423V14.4289C20.3423 14.8389 20.5014 15.083 20.9558 15.083C21.1225 15.083 21.3146 15.0314 21.4365 14.9463L21.3256 14.6172C21.211 14.6836 21.0853 14.717 20.9855 14.717C20.7934 14.717 20.7307 14.5985 20.7307 14.4212V13.6228H21.3591V13.2716ZM15.6143 15.0386V13.9296C15.6143 13.512 15.3482 13.231 14.9192 13.2272C14.6936 13.2234 14.4609 13.2936 14.298 13.5416C14.1762 13.3457 13.9841 13.2272 13.7141 13.2272C13.5254 13.2272 13.3409 13.2826 13.1966 13.4895V13.2716H12.812V15.0386H13.2V14.0591C13.2 13.7523 13.3701 13.5894 13.6329 13.5894C13.888 13.5894 14.0171 13.7557 14.0171 14.0552V15.0386H14.4055V14.0591C14.4055 13.7523 14.5828 13.5894 14.8379 13.5894C15.1003 13.5894 15.2259 13.7557 15.2259 14.0552V15.0386H15.6143Z" fill="#3F4E5D"/>
</g>
</g>
</g>
</svg>
