<svg width="44" height="28" viewBox="0 0 44 28" fill="none" xmlns="http://www.w3.org/2000/svg">
<g id="&#208;&#156;&#208;&#190;&#208;&#189;&#208;&#190;&#208;&#177;&#208;&#176;&#208;&#189;&#208;&#186;">
<rect id="Rectangle" x="0.5" y="0.5" width="43" height="27" rx="2.5" fill="#005EB8" stroke="white"/>
<path id="Vector" fill-rule="evenodd" clip-rule="evenodd" d="M10.1939 15.9116V13.3417C10.1939 12.6126 9.8153 12.2665 9.17945 12.2665C8.65075 12.2665 8.19355 12.5906 7.99348 12.9146C7.86487 12.5095 7.54339 12.2665 7.03615 12.2665C6.50745 12.2665 6.05025 12.6053 5.90733 12.8188V12.3549H5V15.9116H5.90733V13.5184C6.04309 13.3196 6.30742 13.0987 6.62175 13.0987C6.99327 13.0987 7.13615 13.3343 7.13615 13.6657V15.9116H8.05063V13.5111C8.17924 13.3196 8.44357 13.0987 8.76505 13.0987C9.13657 13.0987 9.27945 13.3343 9.27945 13.6657L9.27948 15.9116H10.1939ZM12.6873 16C11.5514 16 10.8655 15.1458 10.8655 14.1296C10.8655 13.1208 11.5514 12.2666 12.6873 12.2666C13.8304 12.2666 14.5163 13.1208 14.5163 14.1296C14.5163 15.1458 13.8305 16 12.6873 16ZM12.6873 15.1679C13.2517 15.1679 13.5732 14.6893 13.5732 14.1296C13.5732 13.5773 13.2518 13.0987 12.6873 13.0987C12.1229 13.0987 11.8086 13.5773 11.8086 14.1296C11.8086 14.6893 12.1229 15.1679 12.6873 15.1679ZM18.4243 15.9116V13.4006C18.4243 12.7084 18.0599 12.2665 17.3026 12.2665C16.7382 12.2665 16.3167 12.5464 16.0952 12.8188V12.3549H15.1878V15.9116H16.0952V13.5184C16.2452 13.3049 16.5239 13.0987 16.8811 13.0987C17.2669 13.0987 17.5169 13.2681 17.5169 13.7614V15.9116H18.4243ZM20.9248 16C19.7888 16 19.103 15.1458 19.103 14.1296C19.103 13.1208 19.7888 12.2666 20.9248 12.2666C22.0679 12.2666 22.7537 13.1208 22.7537 14.1296C22.7537 15.1458 22.0679 16 20.9248 16ZM20.9248 15.1679C21.4892 15.1679 21.8107 14.6893 21.8107 14.1296C21.8107 13.5773 21.4892 13.0987 20.9248 13.0987C20.3603 13.0987 20.046 13.5773 20.046 14.1296C20.046 14.6893 20.3604 15.1679 20.9248 15.1679ZM24.3326 14.7702C24.4826 14.9985 24.8184 15.1679 25.1113 15.1679C25.64 15.1679 25.9901 14.7555 25.9901 14.1369C25.9901 13.5184 25.64 13.0986 25.1113 13.0986C24.8184 13.0986 24.4826 13.2754 24.3326 13.511V14.7702ZM24.3326 15.9116H23.4253V11H24.3326V12.8115C24.6041 12.4507 24.9899 12.2665 25.3971 12.2665C26.2759 12.2665 26.926 12.9735 26.926 14.1369C26.926 15.3225 26.2688 16 25.3971 16C24.9828 16 24.6041 15.8085 24.3326 15.455V15.9116ZM30.5911 15.9116H29.6838V15.5435C29.448 15.8307 29.0408 16 28.5907 16C28.0406 16 27.3904 15.6171 27.3904 14.8218C27.3904 13.9897 28.0406 13.6731 28.5907 13.6731C29.0479 13.6731 29.4551 13.8277 29.6838 14.1075V13.6289C29.6838 13.2681 29.3837 13.0324 28.9265 13.0324C28.5549 13.0324 28.212 13.1723 27.9191 13.4522L27.5762 12.8262C27.9977 12.4433 28.5406 12.2666 29.0836 12.2666C29.8695 12.2666 30.5911 12.5906 30.5911 13.6142L30.5911 15.9116ZM28.955 15.3667C29.2479 15.3667 29.5337 15.2636 29.6838 15.0574V14.6156C29.5337 14.4094 29.2479 14.3063 28.955 14.3063C28.5978 14.3063 28.3049 14.4978 28.3049 14.8439C28.3049 15.1752 28.5978 15.3667 28.955 15.3667ZM34.7277 15.9116V13.4006C34.7277 12.7084 34.3633 12.2665 33.606 12.2665C33.0416 12.2665 32.6201 12.5464 32.3986 12.8188V12.3549H31.4913V15.9116H32.3986V13.5184C32.5486 13.3049 32.8273 13.0987 33.1845 13.0987C33.5703 13.0987 33.8203 13.2681 33.8203 13.7614V15.9116H34.7277ZM39 15.9116L37.5926 13.9676L38.9572 12.3549H37.8426L36.5352 13.9381V11H35.6278V15.9116H36.5352V14.9985L36.9495 14.542L37.8641 15.9116H39Z" fill="white"/>
</g>
</svg>
