<svg width="44" height="28" viewBox="0 0 44 28" fill="none" xmlns="http://www.w3.org/2000/svg">
<g id="&#208;&#159;&#209;&#128;&#208;&#184;&#208;&#178;&#208;&#176;&#209;&#130;&#208;&#177;&#208;&#176;&#208;&#189;&#208;&#186;">
<rect id="Rectangle" x="0.5" y="0.5" width="43" height="27" rx="2.5" fill="#005EB8" stroke="white"/>
<g id="Group">
<g id="Group_2">
<path id="Vector" fill-rule="evenodd" clip-rule="evenodd" d="M10.7379 20.5624L10 20.5616L10.0027 17.9927L12.6592 17.9954L12.6566 20.5642L11.9187 20.5635L11.9209 18.4937L10.7401 18.4925L10.7379 20.5624Z" fill="white"/>
<path id="Vector_2" fill-rule="evenodd" clip-rule="evenodd" d="M13.6639 19.6293C13.6645 19.1084 13.9909 19.0057 14.1967 19.0059C14.398 19.0061 14.7243 19.1096 14.7237 19.6304C14.7234 19.9534 14.5846 20.2615 14.1953 20.2611C13.7974 20.2607 13.6636 19.9522 13.6639 19.6293ZM13.0162 18.7L13.0135 21.2432L13.6934 21.2438L13.6943 20.3739C13.9222 20.6169 14.2934 20.6354 14.3829 20.6355C15.0313 20.6362 15.4298 20.2295 15.4303 19.6382C15.431 19.0217 15.038 18.6325 14.3985 18.6318C14.2373 18.6316 13.9242 18.6571 13.6647 18.9248H13.6511L13.656 18.7007L13.0162 18.7Z" fill="white"/>
<path id="Vector_3" fill-rule="evenodd" clip-rule="evenodd" d="M17.1158 20.3448C16.8653 20.576 16.6235 20.6381 16.3553 20.6379C15.6217 20.6371 15.5955 20.094 15.5957 19.8701L15.5969 18.7031L16.2768 18.7037L16.2757 19.7828C16.2752 20.1534 16.4048 20.2635 16.6552 20.2638C17.0845 20.2642 17.1163 19.8861 17.1164 19.7505L17.1175 18.7046L17.7973 18.7053L17.7954 20.5696L17.1156 20.5689L17.1158 20.3448Z" fill="white"/>
<path id="Vector_4" fill-rule="evenodd" clip-rule="evenodd" d="M18.7717 19.0808L19.1385 19.0811C19.3308 19.0813 19.4962 19.1107 19.4961 19.2647C19.4959 19.4335 19.2366 19.4371 19.1249 19.4371L18.7714 19.4367L18.7717 19.0808ZM18.0925 18.7056L18.0906 20.5701L19.4412 20.5714C19.9333 20.5719 20.2732 20.4763 20.2736 20.0952C20.2739 19.8016 20.1085 19.673 19.7328 19.6064V19.5954C19.9787 19.5627 20.1934 19.4125 20.1937 19.1591C20.1942 18.7077 19.6577 18.7071 19.4475 18.7069L18.0925 18.7056ZM18.7711 19.7853L19.1871 19.7858C19.509 19.7861 19.5759 19.8814 19.5758 20.0061C19.5757 20.0868 19.5309 20.1969 19.1955 20.1966L18.7706 20.1961L18.7711 19.7853Z" fill="white"/>
<path id="Vector_5" fill-rule="evenodd" clip-rule="evenodd" d="M21.9196 19.803C21.9192 20.1773 21.5882 20.2685 21.4226 20.2685C21.2976 20.2683 21.0738 20.228 21.074 20.0514C21.0742 19.8421 21.3292 19.8024 21.4725 19.7842C21.736 19.7475 21.7139 19.7586 21.9198 19.6854L21.9196 19.803ZM21.1328 19.3104C21.1331 19.035 21.4281 19.0134 21.5491 19.0135C21.6253 19.0136 21.907 19.0176 21.9157 19.2595L21.9156 19.3112C21.902 19.4947 21.723 19.4575 21.222 19.5197C20.8105 19.5741 20.3767 19.6767 20.3762 20.102C20.3761 20.2564 20.4427 20.6418 21.1672 20.6426C21.4447 20.6428 21.7488 20.5734 21.9278 20.3898H21.9414L21.9994 20.5737L22.7148 20.5744V20.5416C22.5854 20.5155 22.5762 20.3904 22.5811 20.189L22.5955 19.3373C22.6 19.1212 22.578 18.6402 21.5541 18.6392C21.308 18.6389 20.5166 18.6601 20.4846 19.3098L21.1328 19.3104Z" fill="white"/>
<path id="Vector_6" fill-rule="evenodd" clip-rule="evenodd" d="M22.6719 19.0845L22.6723 18.71L24.8546 18.7122L24.8542 19.0867L24.1027 19.0859L24.1013 20.5759L23.4215 20.5753L23.423 19.0853L22.6719 19.0845Z" fill="white"/>
<path id="Vector_7" fill-rule="evenodd" clip-rule="evenodd" d="M25.7216 19.4617L26.3342 19.4624C26.5128 19.4625 26.8706 19.4814 26.8703 19.7897C26.87 20.0321 26.6106 20.0791 26.3199 20.0788L25.7209 20.0782L25.7216 19.4617ZM25.7226 18.5077L27.4173 18.5095L27.4178 18.0104L24.9848 18.0078L24.9823 20.5767L26.4761 20.5783C27.2008 20.5791 27.666 20.33 27.6665 19.8053C27.6673 18.9832 26.7371 18.9639 26.4778 18.9637L25.722 18.9629L25.7226 18.5077Z" fill="white"/>
<path id="Vector_8" fill-rule="evenodd" clip-rule="evenodd" d="M29.339 19.8107C29.3385 20.185 29.0077 20.2763 28.8423 20.2762C28.7169 20.276 28.4937 20.2356 28.4938 20.0591C28.494 19.8498 28.7488 19.8102 28.8919 19.7919C29.1557 19.7552 29.1335 19.7662 29.3391 19.6932L29.339 19.8107ZM28.5526 19.3182C28.5529 19.0427 28.8479 19.0211 28.9685 19.0213C29.0449 19.0213 29.3267 19.0254 29.3354 19.2673L29.3353 19.319C29.3216 19.5025 29.1427 19.4652 28.6416 19.5274C28.2302 19.5819 27.7966 19.6845 27.7961 20.1098C27.7959 20.2642 27.8625 20.6496 28.587 20.6503C28.8643 20.6505 29.1685 20.5812 29.3475 20.3975H29.3612L29.419 20.5814L30.1346 20.5821V20.5492C30.0047 20.5232 29.9958 20.3982 30.0004 20.1966L30.015 19.345C30.0197 19.1288 29.9976 18.648 28.9734 18.647C28.7276 18.6467 27.936 18.6678 27.9039 19.3175L28.5526 19.3182Z" fill="white"/>
<path id="Vector_9" fill-rule="evenodd" clip-rule="evenodd" d="M30.9842 20.5829L30.3046 20.5822L30.3065 18.7178L30.9861 18.7184L30.9854 19.4197L31.8038 19.4206L31.8046 18.7194L32.4845 18.72L32.4824 20.5844L31.8026 20.5838L31.8034 19.7949L30.985 19.794L30.9842 20.5829Z" fill="white"/>
<path id="Vector_10" fill-rule="evenodd" clip-rule="evenodd" d="M34.2017 18.722L34.9577 18.7228L34.022 19.5952L35 20.5874L34.204 20.5867L33.4715 19.7709H33.4583L33.4576 20.5859L32.7775 20.5852L32.7796 18.7207L33.4595 18.7213L33.4586 19.47H33.4717L34.2017 18.722Z" fill="white"/>
</g>
<g id="Group_3">
<path id="Vector_11" fill-rule="evenodd" clip-rule="evenodd" d="M17.5065 16.1542L21.5398 16.1581L21.544 12.188L17.5105 12.1841L17.5065 16.1542Z" fill="white"/>
<path id="Vector_12" opacity="0.75" fill-rule="evenodd" clip-rule="evenodd" d="M17.5222 6L17.5171 10.9421L18.5833 10.9432C21.3895 10.946 22.811 12.3486 22.808 15.1115L22.8069 16.1607L27.8265 16.1656L27.8373 6.01036L17.5222 6ZM25.7025 8.10768L25.6962 14.0643L24.8733 14.0636C24.5214 11.1175 22.643 9.26471 19.6516 8.91244L19.6523 8.10166L25.7025 8.10768Z" fill="white"/>
</g>
</g>
</g>
</svg>
