<svg width="76" height="78" viewBox="0 0 76 78" fill="none" xmlns="http://www.w3.org/2000/svg">
<rect opacity="0.6" y="2" width="76" height="76" rx="38" fill="#D2DDE7"/>
<path d="M25.4618 17.7977H6.91599V43.9405H25.4618V17.7977Z" fill="#6D4A32"/>
<path d="M74.8867 59.2014C74.8685 55.0125 71.9962 51.2485 67.9314 50.1868C65.9156 49.6603 63.8094 49.5281 61.7838 48.9912C59.6085 48.4146 57.4849 47.6429 55.447 46.6883C47.4078 42.9229 40.8479 36.3192 37.138 28.2539C35.0825 23.785 33.4722 19.0776 31.6772 14.5005C31.4704 13.9734 31.3153 13.2694 30.9721 12.803C29.9289 11.3851 28.2506 12.9835 27.2699 13.6439C24.4563 15.5387 23.0632 18.2934 23.054 21.6625C23.0417 26.1668 23.168 30.6838 23.054 35.1866C22.9474 39.3981 18.9924 42.6198 14.8282 41.5119C11.5121 40.6297 9.97247 37.6528 9.97247 34.4378C9.97247 29.8816 10.1411 25.2931 9.97247 20.7404C9.89959 18.772 8.64203 17.0308 6.67686 16.5692C5.90128 16.387 4.14793 16.1081 3.87763 16.9833C3.67917 17.6259 3.87763 18.6508 3.87763 19.3161C3.87763 20.7171 3.87763 22.1182 3.87763 23.5191C3.87763 25.8961 3.90346 28.2745 3.87763 30.6513C3.85937 32.3403 3.17032 33.434 2.43318 34.877C1.90252 35.9161 1.79742 37.0127 1.79742 38.15C1.79742 43.2689 1.79742 48.3879 1.79742 53.5068C1.79742 53.9843 1.79742 54.4618 1.79742 54.9394L3.96431 59.2016L22.0167 59.8587L23.5411 56.8319L40.4033 61.8785H71.8277L74.8867 59.2014Z" fill="#B58B5B"/>
<path d="M9.38689 59.2015L7.22 54.9392V37.5194C7.22 36.3333 7.58293 35.1758 8.2601 34.2024C8.93728 33.2289 9.30021 32.0714 9.30021 30.8854V18.4322C8.5405 17.2441 7.2111 16.4559 5.69674 16.4559H4.31478C4.07357 16.4559 3.87793 16.6516 3.87793 16.8931V30.8854C3.87793 32.0714 3.515 33.2289 2.83783 34.2024C2.16081 35.1758 1.79773 36.3333 1.79773 37.5194V54.9392L3.96462 59.2015L22.017 59.8586L22.1147 59.6648L9.38689 59.2015Z" fill="#A57D55"/>
<path d="M28.2534 58.242L40.4035 61.8782H45.8258L28.9636 56.8317L28.2534 58.242Z" fill="#A57D55"/>
<path d="M14.3285 49.3059C12.714 46.3134 9.13751 45.4033 6.72852 43.2258C4.41319 41.1328 2.98241 38.3008 2.24304 35.295C1.9521 35.9967 1.79758 36.7517 1.79758 37.5195V54.9394H15.2055C15.3943 53.4317 15.4074 51.3057 14.3285 49.3059Z" fill="#A57D55"/>
<path d="M7.21985 43.6464C4.6262 41.5257 3.03525 38.516 2.24304 35.2949C1.9521 35.9965 1.79758 36.7515 1.79758 37.5193V54.9392H7.21985V43.6464Z" fill="#96704E"/>
<path d="M10.9617 20.2674V35.1719C10.9617 38.2113 13.4242 40.6752 16.4619 40.6752C19.4995 40.6752 21.9621 38.2113 21.9621 35.1719V20.5951C21.9621 19.7332 22.1139 18.8915 22.3988 18.103L22.3718 17.7972H9.979C10.5876 18.4418 10.9617 19.3106 10.9617 20.2674Z" fill="#845A3A"/>
<path d="M74.8867 59.2015H38.0907L23.9271 54.9392C17.3553 54.9392 10.7835 54.9392 4.21177 54.9392C3.48681 54.9392 2.51261 54.7656 1.80145 54.9392C0.857384 55.1698 1.08524 56.3265 1.11774 57.1097C1.17786 58.5593 1.64915 59.9435 2.54913 61.0895C5.0742 64.3049 9.2778 63.6651 12.8856 63.6651C15.1791 63.6651 17.4726 63.6651 19.7659 63.6651C20.8889 63.6651 23.6155 64.1335 23.6271 62.3577L23.6391 60.7219C23.6428 60.1427 24.2016 59.7295 24.7561 59.8956L38.046 63.7913C48.3124 63.7913 58.5788 63.7913 68.845 63.7913C69.3279 63.7913 69.8142 63.8082 70.2969 63.7913C72.7958 63.7039 74.8873 61.7686 74.8867 59.2015Z" fill="#604F44"/>
<path d="M6.60176 56.9366V55.6241C6.60176 55.2459 6.90814 54.9394 7.28621 54.9394H1.79773C1.41981 54.9394 1.11343 55.2459 1.11343 55.6241V56.9366C1.11343 60.6528 4.12419 63.6651 7.83825 63.6651H13.3267C9.61252 63.6651 6.60176 60.6526 6.60176 56.9366Z" fill="#493C35"/>
<path d="M76 59.2013C76 53.7943 71.8852 49.5774 66.6688 48.8233C60.3455 47.9092 54.3543 45.5273 49.2565 41.6462C48.1166 40.7783 46.7658 42.5486 47.9078 43.4178C52.4231 46.8553 57.6902 49.282 63.2362 50.4843C65.627 51.0027 68.13 51.0021 70.2103 52.4392C72.0967 53.7425 73.3859 55.8135 73.6971 58.0882H49.2766C47.8439 58.0882 47.8416 60.3147 49.2766 60.3147H73.5909C73.126 61.6875 71.8262 62.678 70.2996 62.678H38.2059L25.0755 58.829C24.4721 58.6484 23.8356 58.7596 23.3293 59.1341C22.8229 59.5086 22.5298 60.0848 22.5258 60.7139L22.5138 62.3507C22.5131 62.4618 22.4225 62.552 22.3119 62.552H7.83809C4.74391 62.552 2.22656 60.033 2.22656 56.9366V56.0525H15.2048C15.2065 56.0527 15.2083 56.0527 15.2102 56.0525H23.7634L37.7699 60.2675C37.874 60.2989 37.982 60.3147 38.0907 60.3147H43.7502C45.1829 60.3147 45.1853 58.0882 43.7502 58.0882H38.2546L24.2482 53.8732C24.1441 53.8418 24.036 53.826 23.9274 53.826H16.409C16.4691 51.9405 16.1012 50.2464 15.3084 48.7771C14.1498 46.63 12.4925 45.6654 10.738 44.6442C9.4669 43.9042 8.15234 43.1392 6.87592 41.8221C5.27784 40.173 4.11691 38.0119 3.42 35.3965C3.51767 35.2045 3.62722 35.0173 3.75191 34.838C4.56267 33.6723 4.99136 32.3055 4.99136 30.8854V24.9134C4.99136 23.4807 2.7648 23.4783 2.7648 24.9134V30.8854C2.7648 31.8487 2.47416 32.7759 1.92405 33.5666C1.11328 34.7324 0.684594 36.0992 0.684594 37.5192V54.2149C0.268227 54.5445 0 55.0531 0 55.624V56.9365C0 61.2604 3.51619 64.7784 7.83809 64.7784H22.3119C23.6425 64.7784 24.7319 63.6957 24.7404 62.3659L24.7499 61.0538L37.7328 64.8596C37.8345 64.8894 37.94 64.9046 38.0459 64.9046H70.2994C73.4032 64.9046 76 62.3037 76 59.2013ZM9.61771 46.5685C12.4867 48.2385 14.315 50.309 14.1805 53.826H2.91086V40.1382C3.57274 41.3458 4.36169 42.4271 5.2768 43.3716C6.76682 44.9092 8.28148 45.7907 9.61771 46.5685Z" fill="black"/>
<path d="M3.87778 21.6064C4.49275 21.6064 4.99106 21.108 4.99106 20.4931V17.5694H5.69658C7.44057 17.5694 8.85949 18.9893 8.85949 20.7346V35.1867C8.85949 39.3518 12.347 42.8443 16.5135 42.8443C20.6803 42.8443 24.1674 39.352 24.1674 35.1867V21.1244C24.1674 18.5743 25.4334 16.2073 27.554 14.7927L29.6902 13.3678C29.7776 13.3095 29.8621 13.3181 29.9176 13.3353C29.9731 13.3529 30.0475 13.3943 30.0861 13.4928L35.2495 26.6588C37.3409 31.9916 40.5035 36.696 44.6491 40.6416C45.0946 41.0655 45.7994 41.0482 46.2231 40.6027C46.6469 40.1574 46.6296 39.4526 46.1842 39.0288C42.2757 35.309 39.2942 30.8737 37.3224 25.8459L32.159 12.6798C31.8821 11.9737 31.3084 11.4385 30.5849 11.211C29.8618 10.9836 29.0851 11.0947 28.4544 11.5155L26.3183 12.9403C24.8826 13.8981 23.7507 15.1938 22.9974 16.6839H9.2478C8.29869 15.85 7.05612 15.3428 5.69658 15.3428H4.31463C3.45978 15.3428 2.7645 16.0384 2.7645 16.8932V20.4931C2.7645 21.108 3.2628 21.6064 3.87778 21.6064ZM21.941 21.1244V35.1867C21.941 38.1407 19.4685 40.6177 16.5135 40.6177C13.5584 40.6177 11.0862 38.1409 11.0862 35.1867V20.7346C11.0862 20.0946 10.9735 19.4806 10.7681 18.9105H22.1929C22.0275 19.6282 21.941 20.3699 21.941 21.1244Z" fill="black"/>
</svg>
