<svg width="76" height="78" viewBox="0 0 76 78" fill="none" xmlns="http://www.w3.org/2000/svg">
<rect opacity="0.6" y="2" width="76" height="76" rx="38" fill="#D2DDE7"/>
<g clip-path="url(#clip0_46_1038)">
<path fill-rule="evenodd" clip-rule="evenodd" d="M12.415 30.9095L18.3524 24.9717V14.8177H7.92414C5.86134 14.8177 4.19977 16.5043 4.19977 18.5982V30.9095H12.415Z" fill="#FFC144"/>
<path fill-rule="evenodd" clip-rule="evenodd" d="M18.3524 24.9717L12.4151 30.9095H4.19995V38.3319H12.4151L25.7751 51.692L25.7458 54.477C26.4353 54.4032 27.1754 54.3609 27.9804 54.3609C31.5115 54.3609 37.2615 55.367 43.6493 56.1313C46.5978 45.1271 53.3689 52.9089 55.8567 43.6245L49.258 39.0375L43.5779 35.089L37.8977 31.1405L33.9945 28.4271C33.9945 23.4874 33.9945 19.3037 33.9945 14.364C33.9945 12.3857 32.3041 10.8114 30.0945 11.4124L18.3524 14.8178V24.9717Z" fill="#FFDA8F"/>
<path fill-rule="evenodd" clip-rule="evenodd" d="M25.7752 51.692L12.415 38.3318H4.19991L2.45758 51.9948C8.3019 51.9948 10.4883 57.383 15.319 56.9527C19.1312 56.6131 21.4621 54.9356 25.7459 54.4769L25.7752 51.692Z" fill="#FFC144"/>
<path fill-rule="evenodd" clip-rule="evenodd" d="M25.746 54.4768C21.4621 54.9355 19.1313 56.613 15.319 56.9526C10.4884 57.3829 8.30192 51.9947 2.45761 51.9947L1.53835 59.2022C1.2403 61.5395 2.15673 64.719 5.68962 64.719H25.746L26.4881 60.9385H30.5876L34.5584 64.719H62.3743C69.0521 64.719 74.5156 59.1732 74.5156 52.3949C74.5156 52.0254 74.5047 51.668 74.4828 51.3224C67.8451 58.06 54.7793 57.4627 43.6495 56.1311C37.2617 55.3668 31.5116 54.3608 27.9806 54.3608C27.1755 54.3608 26.4354 54.4031 25.746 54.4768Z" fill="#C68A65"/>
<path fill-rule="evenodd" clip-rule="evenodd" d="M55.8568 43.6245C53.3691 52.9089 46.5979 45.1271 43.6494 56.1313C54.7792 57.4629 67.845 58.0602 74.4827 51.3226C74.1535 46.1297 71.344 43.6245 65.875 43.6245H55.8568Z" fill="#FFC144"/>
<path d="M73.4401 44.7477C71.7355 43.0174 69.1902 42.1401 65.8751 42.1401H56.3222L51.563 38.8318L51.6858 38.7091C52.2654 38.1294 52.2654 37.1896 51.6858 36.6098C51.1062 36.03 50.1664 36.0303 49.5865 36.6098L49.0863 37.11L45.8829 34.8832L46.0055 34.7606C46.5851 34.1809 46.5851 33.241 46.0055 32.6613C45.4259 32.0818 44.486 32.0818 43.9062 32.6613L43.406 33.1615L40.2026 30.9347L40.3252 30.8121C40.9049 30.2324 40.9049 29.2925 40.3252 28.7127C39.7456 28.1333 38.8057 28.1333 38.2259 28.7127L37.7257 29.213L35.4787 27.651V14.364C35.4787 12.8889 34.8346 11.5506 33.7116 10.6923C32.5903 9.83513 31.1672 9.5825 29.7047 9.98015C29.6967 9.98238 29.6888 9.98446 29.681 9.98683L18.1417 13.3334H7.92416C5.0521 13.3334 2.71544 15.6952 2.71544 18.5983V38.2378L0.0658873 59.0148C-0.198029 61.0851 0.341382 63.1129 1.50897 64.439C2.5256 65.5934 3.9712 66.2036 5.68978 66.2036H25.746C26.4555 66.2036 27.0658 65.7015 27.2024 65.0053L27.7093 62.4231H29.994L33.5349 65.7942C33.8109 66.0571 34.1773 66.2036 34.5585 66.2036H62.3744C69.8876 66.2036 76.0001 60.0093 76.0001 52.3952C76 49.0449 75.1386 46.4719 73.4401 44.7477ZM72.9446 50.7434C66.9615 56.2057 55.7719 55.9786 45.6076 54.8632C46.8721 51.5104 48.5357 51.102 50.5814 50.6002C52.7645 50.0645 55.4419 49.4075 56.9523 45.1088H65.8751C70.3124 45.1088 72.499 46.8142 72.9446 50.7434ZM30.4947 12.8418C31.0477 12.6944 31.5367 12.7661 31.909 13.0508C32.291 13.3428 32.5101 13.8213 32.5101 14.364V28.4272C32.5101 28.9131 32.7482 29.3685 33.1472 29.646L35.593 31.3461L32.1031 34.836C31.5235 35.4156 31.5235 36.3555 32.1031 36.9353C32.393 37.225 32.7729 37.3701 33.1527 37.3701C33.5325 37.3701 33.9125 37.225 34.2023 36.9353L38.0697 33.0678L41.2731 35.2946L37.7833 38.7845C37.2036 39.3641 37.2036 40.304 37.7833 40.8838C38.0732 41.1735 38.453 41.3186 38.8328 41.3186C39.2127 41.3186 39.5927 41.1735 39.8824 40.8838L43.7499 37.0163L46.9533 39.2431L43.4634 42.733C42.8838 43.3126 42.8838 44.2525 43.4634 44.8323C43.7533 45.1222 44.1332 45.2671 44.513 45.2671C44.8928 45.2671 45.2728 45.122 45.5626 44.8323L49.43 40.965L54.12 44.2251C53.1669 46.9092 51.8172 47.2404 49.874 47.7173C47.4259 48.318 44.4112 49.0576 42.5875 54.5061C41.007 54.3072 39.4686 54.098 37.9978 53.8979C33.9685 53.3499 30.4887 52.8766 27.9805 52.8766C27.7305 52.8766 27.4861 52.8804 27.2471 52.8878L27.2594 51.7078C27.2636 51.3088 27.107 50.9248 26.8248 50.6425L24.8675 48.6852C24.2879 48.1057 23.348 48.1057 22.7682 48.6852C22.1886 49.2649 22.1886 50.2047 22.7682 50.7845L24.2842 52.3005L24.2748 53.1852C22.5652 53.4789 21.1549 53.9382 19.8509 54.3627C18.3371 54.8555 16.9074 55.321 15.1871 55.4742C13.346 55.6385 11.9602 54.6854 10.2062 53.4789C8.53289 52.328 6.67048 51.047 4.12632 50.6413L5.50676 39.8164H11.7999L13.3218 41.3383C13.6117 41.628 13.9916 41.7731 14.3714 41.7731C14.7513 41.7731 15.1313 41.628 15.421 41.3383C16.0006 40.7587 16.0006 39.8188 15.421 39.239L13.4643 37.2823C13.186 37.004 12.8086 36.8476 12.4148 36.8476H5.68428V32.3939H12.4151C12.8087 32.3939 13.1863 32.2375 13.4646 31.9592L19.402 26.0213C19.6803 25.7429 19.8368 25.3654 19.8368 24.9718V15.9328L30.4947 12.8418ZM7.92416 16.3021H16.8681V24.3571L11.8001 29.4254H5.68428V18.5984C5.68428 17.3321 6.68904 16.3021 7.92416 16.3021ZM63.9766 63.1125V62.6197C63.9766 61.8 63.3121 61.1353 62.4923 61.1353C61.6725 61.1353 61.0079 61.8 61.0079 62.6197V63.2349H56.5549V62.6197C56.5549 61.8 55.8904 61.1353 55.0706 61.1353C54.2508 61.1353 53.5862 61.8 53.5862 62.6197V63.2349H49.1332V62.6197C49.1332 61.8 48.4686 61.1353 47.6488 61.1353C46.829 61.1353 46.1645 61.8 46.1645 62.6197V63.2349H41.7114V62.6197C41.7114 61.8 41.0469 61.1353 40.2271 61.1353C39.4073 61.1353 38.7427 61.8 38.7427 62.6197V63.2349H35.1518L31.6111 59.8637C31.3351 59.6008 30.9686 59.4543 30.5875 59.4543H26.488C25.7785 59.4543 25.1681 59.9565 25.0315 60.6526L24.5246 63.2348H19.4464V62.6195C19.4464 61.7999 18.7819 61.1352 17.9621 61.1352C17.1422 61.1352 16.4777 61.7999 16.4777 62.6195V63.2348H12.0247V62.6195C12.0247 61.7999 11.3601 61.1352 10.5403 61.1352C9.72052 61.1352 9.05598 61.7999 9.05598 62.6195V63.2348H5.68948C4.82455 63.2348 4.18584 62.9869 3.73682 62.477C3.14264 61.8021 2.8575 60.5906 3.01053 59.3902L3.75033 53.5894C5.59701 53.9115 7.02554 54.8941 8.52369 55.9245C10.5002 57.2842 12.5449 58.6878 15.4504 58.4311C17.5064 58.248 19.1654 57.7078 20.7698 57.1853C22.887 56.496 24.8865 55.8451 27.9803 55.8451C30.2876 55.8451 33.6752 56.3059 37.5976 56.8393C43.1343 57.5923 49.5794 58.469 55.7682 58.469C62.1481 58.469 68.2554 57.5373 72.814 54.5782C71.9237 58.9898 68.3897 62.4326 63.9766 63.1125Z" fill="black"/>
<path d="M19.0951 43.5276H19.0941C18.2743 43.5276 17.6103 44.1923 17.6103 45.012C17.6103 45.8316 18.2753 46.4963 19.0951 46.4963C19.9149 46.4963 20.5795 45.8316 20.5795 45.012C20.5795 44.1923 19.9149 43.5276 19.0951 43.5276Z" fill="black"/>
<path d="M28.0571 19.5593C28.8769 19.5593 29.5415 18.8946 29.5415 18.0749C29.5415 17.2552 28.8769 16.5905 28.0571 16.5905H28.0561C27.2363 16.5905 26.5721 17.2552 26.5721 18.0749C26.5721 18.8946 27.2373 19.5593 28.0571 19.5593Z" fill="black"/>
<path d="M28.0571 25.4967C28.8769 25.4967 29.5415 24.832 29.5415 24.0123C29.5415 23.1927 28.8769 22.528 28.0571 22.528H28.0561C27.2363 22.528 26.5721 23.1927 26.5721 24.0123C26.5721 24.832 27.2373 25.4967 28.0571 25.4967Z" fill="black"/>
</g>
<defs>
<clipPath id="clip0_46_1038">
<rect width="76" height="76" fill="white"/>
</clipPath>
</defs>
</svg>
