<svg width="76" height="78" viewBox="0 0 76 78" fill="none" xmlns="http://www.w3.org/2000/svg">
<rect opacity="0.6" y="2" width="76" height="76" rx="38" fill="#D2DDE7"/>
<g clip-path="url(#clip0_46_1039)">
<path d="M16.6859 38.0691L15.6214 39.7796C14.039 43.0156 13.2064 46.584 13.2064 50.2155V66.7761H7.26826C7.25434 47.1928 7.29899 48.3693 7.22825 47.107C6.96501 42.3744 5.52064 37.8122 3.23203 33.7064C2.47766 32.3554 1.95929 30.9006 1.65662 29.4C7.09605 31.5732 12.1505 34.5037 16.6859 38.0691Z" fill="#424D63"/>
<path d="M16.686 38.0691C12.1505 34.5036 7.09607 31.5732 1.65664 29.3999C1.26467 27.4581 1.23394 25.4373 1.52153 23.4572L1.55111 23.2479C2.37563 17.7499 5.37454 12.7697 9.75635 9.27734C17.9535 15.9089 25.1829 23.6532 31.2352 32.2869L41.1446 46.4256C42.8928 49.7017 47.2369 51.9312 51.2093 51.9312C53.887 51.9312 57.2182 50.9188 59.0609 49.2564C67.8031 50.5419 74.3674 58.7494 74.3674 62.323C74.3674 66.4212 65.7272 66.7761 55.0687 66.7761H42.9287C39.3552 66.7761 36.1847 64.6133 34.7461 61.3413C30.6965 52.1347 24.4529 44.1718 16.686 38.0691Z" fill="#E87288"/>
<path d="M65.4977 62.323C66.317 62.323 66.982 61.6579 66.982 60.8386C66.982 60.0187 66.317 59.3536 65.4977 59.3536C64.6778 59.3536 64.0127 60.0187 64.0127 60.8386C64.0127 61.6579 64.6778 62.323 65.4977 62.323Z" fill="black"/>
<path d="M0.205862 29.7142C0.548544 31.4004 1.13012 32.9868 1.93493 34.4294C4.55462 39.1278 5.78387 44.0205 5.78387 48.4533V66.7767C5.78387 67.5966 6.44837 68.261 7.26825 68.261H13.2063C14.0262 68.261 14.6907 67.5966 14.6907 66.7767V50.2154C14.6907 46.8692 15.4619 43.5108 16.9225 40.4985L17.0582 40.2799C24.0869 46.1305 29.7137 53.5877 33.3869 61.9391C35.0754 65.7794 38.8211 68.261 42.9287 68.261H55.0687C60.9302 68.261 65.537 68.1399 68.9668 67.5496C70.6697 67.2562 75.8517 66.365 75.8517 62.323C75.8517 60.0372 73.958 56.7183 71.0269 53.8678C69.059 51.9526 64.9143 48.6168 59.2766 47.7877C58.8382 47.7233 58.3946 47.8578 58.0659 48.1541C56.5942 49.4825 53.7101 50.4468 51.2093 50.4468C47.6543 50.4468 43.8901 48.4174 42.4538 45.7263C42.4254 45.6736 42.3941 45.6226 42.3599 45.5733L32.4505 31.4351C26.3176 22.686 18.996 14.8426 10.6899 8.12346C10.1483 7.6851 9.37537 7.6822 8.83091 8.1165C6.51389 9.96328 4.58072 12.1724 3.08474 14.6826C0.199483 19.5259 -0.729412 25.0488 0.196584 29.6695C0.199483 29.6846 0.202383 29.6997 0.205862 29.7142ZM11.7214 50.2154V65.2917H8.75263V48.4533C8.75263 48.0068 8.73813 47.5256 8.7103 47.0246C8.25861 38.8872 4.7222 33.5144 4.05771 32.0515C7.82199 33.7974 11.3926 35.9329 14.7145 38.4268C13.1118 41.021 11.7214 45.5721 11.7214 50.2154ZM5.67255 16.2023C6.78351 14.3381 8.17105 12.6618 9.80677 11.2064C17.5087 17.5771 24.3166 24.9509 30.0569 33.1393L39.9164 47.2072C41.8902 50.8103 46.6367 53.4161 51.2464 53.4161C54.1699 53.4161 57.4449 52.3753 59.5137 50.8318C64.0074 51.687 67.3589 54.4047 68.994 55.9958C71.5714 58.503 72.9195 61.0763 72.9195 62.323C72.9195 63.5957 70.5167 64.2764 68.5 64.6237C65.2778 65.1781 60.8149 65.2917 55.1058 65.2917H42.9658C40.0353 65.2917 37.3565 63.507 36.1417 60.7441C29.7137 46.1293 17.8334 34.4862 3.01458 28.3348C2.47592 24.6818 3.28768 20.2061 5.67255 16.2023Z" fill="black"/>
<path d="M42.9333 62.323H59.5595C60.3794 62.323 61.0439 61.6579 61.0439 60.8386C61.0439 60.0187 60.3794 59.3536 59.5595 59.3536H42.9333C42.1134 59.3536 41.4484 60.0187 41.4484 60.8386C41.4484 61.6579 42.1134 62.323 42.9333 62.323Z" fill="black"/>
</g>
<defs>
<clipPath id="clip0_46_1039">
<rect width="76" height="75.8517" fill="white"/>
</clipPath>
</defs>
</svg>
