<svg width="76" height="78" viewBox="0 0 76 78" fill="none" xmlns="http://www.w3.org/2000/svg">
<rect opacity="0.6" y="2" width="76" height="76" rx="38" fill="#D2DDE7"/>
<g clip-path="url(#clip0_46_1037)">
<path d="M74.7333 49.3984V45.8631C74.7335 43.4885 73.0843 41.4322 70.7661 40.9168L51.9333 36.7317L27.8667 21.5317L23.8805 25.1189C18.9147 29.586 11.406 29.677 6.33334 25.3317L5.79881 26.4008C2.81834 32.3614 1.26667 38.9342 1.26667 45.5984H22.8L41.8 49.3984H74.7333Z" fill="#A15D30"/>
<path d="M22.8 46.8651C23.4995 46.8658 24.0673 46.2992 24.0679 45.5997C24.0681 45.4469 24.0407 45.2956 23.9869 45.1526C23.8209 44.7131 19.7727 34.353 4.1078 30.4365C3.43504 30.2447 2.73426 30.6348 2.54252 31.3076C2.35078 31.9804 2.74091 32.6811 3.41367 32.8729C3.43963 32.8803 3.46576 32.8868 3.4922 32.8925C17.8815 36.4899 21.5789 45.9481 21.6131 46.0431C21.7985 46.5377 22.2716 46.8654 22.8 46.8651Z" fill="#824B27"/>
<path d="M25.5461 46.1619C28.8773 41.1238 34.963 38.6517 40.8639 39.9401L48.621 41.6021L49.2113 40.1277C49.8843 38.4438 49.2738 36.5191 47.7533 35.531C47.1061 35.1117 27.5513 22.782 26.9395 22.3855L28.6862 20.5906C29.3018 20.9896 48.4753 32.9799 49.1302 33.4042C51.6653 35.052 52.6843 38.2603 51.5647 41.0688L50.1803 44.5268L40.3345 42.4166C35.4504 41.3553 30.4157 43.4003 27.6551 47.5668C27.2672 48.1492 26.4806 48.3069 25.8983 47.919C25.3159 47.5311 25.1582 46.7445 25.5461 46.1619Z" fill="#824B27"/>
<path d="M49.2205 30.3129L47.0798 28.9601L43.0214 35.3821L45.1621 36.7349L49.2205 30.3129Z" fill="#484A4D"/>
<path d="M44.9209 27.6195L42.778 26.2659L38.7187 32.6925L40.8615 34.0461L44.9209 27.6195Z" fill="#484A4D"/>
<path d="M40.6367 24.9139L38.4949 23.5609L34.4361 29.9864L36.5778 31.3394L40.6367 24.9139Z" fill="#484A4D"/>
<path d="M36.3589 22.2077L34.216 20.8541L30.1567 27.2807L32.2995 28.6342L36.3589 22.2077Z" fill="#484A4D"/>
<path d="M22.8 45.5984H1.26665V54.4651H22.8V45.5984Z" fill="#484A4D"/>
<path d="M22.8 50.6651L41.8 54.4651H74.7333V49.3984H41.8L22.8 45.5984V50.6651Z" fill="#484A4D"/>
<path d="M4.66513 25.8346L5.19967 24.7643C5.51269 24.1387 6.27364 23.8852 6.89922 24.1983C6.99216 24.2448 7.07909 24.3026 7.15794 24.3704C11.7523 28.2871 18.5343 28.2054 23.0331 24.1791L27.0193 20.5906C27.4409 20.214 28.0611 20.1622 28.5393 20.464L32.7699 23.1354L34.2076 20.8554L36.3533 22.2082L34.9144 24.4882L37.0563 25.8397L38.494 23.5597L40.6359 24.9138L39.1983 27.1938L41.3389 28.5466L42.7766 26.2666L44.9198 27.6194L43.4821 29.8994L45.6253 31.2484L47.063 28.9684L49.2037 30.3288L47.8015 32.548L49.1289 33.4068C49.2683 33.4967 49.3823 33.6094 49.5178 33.7095L52.4235 35.5449L71.0435 39.6818C73.947 40.3147 76.0131 42.8913 76 45.8632V54.4651C76 55.1646 75.4328 55.7318 74.7333 55.7318H41.8C41.715 55.7319 41.6301 55.7234 41.5467 55.7064L24.0667 52.2092V54.4651C24.0667 55.1646 23.4995 55.7318 22.8 55.7318H1.26666C0.567146 55.7318 0 55.1646 0 54.4651V45.5984C0.0080719 38.7386 1.60487 31.9739 4.66513 25.8346ZM2.5536 44.328H20.7125C18.9823 41.5071 14.4096 35.93 4.44347 33.1623C3.31107 36.7828 2.6752 40.5403 2.5536 44.3318V44.328ZM42.1293 32.0388L40.8627 34.0464L38.7207 32.6924L39.9874 30.6847L37.8455 29.3319L36.5788 31.3396L34.4381 29.9855L35.7048 27.9804L33.5667 26.6276L32.3 28.634L30.1467 27.2812L31.4133 25.2735L27.9933 23.1202L24.7203 26.0664C19.7242 30.54 12.3242 31.0376 6.77413 27.2736C6.21553 28.4136 5.72027 29.5878 5.26807 30.7772C17.9525 34.3416 22.5733 42.1455 23.6867 44.485L26.3885 45.0246C29.8626 40.7302 35.4621 38.7627 40.8589 39.9402L48.621 41.6021L49.2113 40.1277C49.8101 38.6161 49.3808 36.8911 48.1435 35.8362L46.4132 34.7431L45.1465 36.7508L43.0033 35.3954L44.27 33.3878L42.1293 32.0388ZM73.4667 45.863C73.4751 44.0789 72.2345 42.5322 70.4913 42.1529L51.9637 38.0363C52.0817 39.0647 51.9443 40.1062 51.5635 41.0687L50.5767 43.5349C50.3503 44.1103 49.7391 44.4358 49.1353 44.3025L40.3332 42.4164C36.3567 41.5601 32.2159 42.76 29.3132 45.6097L41.9267 48.1318H73.4667V45.863ZM41.9267 53.1984H73.4667V50.6651H41.8C41.715 50.6653 41.6301 50.6567 41.5467 50.6398L24.0667 47.1423V49.6263L41.9267 53.1984ZM2.53333 53.1984H21.5333V46.8651H2.53333V53.1984Z" fill="black"/>
</g>
<defs>
<clipPath id="clip0_46_1037">
<rect width="76" height="76" fill="white" transform="matrix(-1 0 0 1 76 0)"/>
</clipPath>
</defs>
</svg>
