<svg width="76" height="76" viewBox="0 0 76 76" fill="none" xmlns="http://www.w3.org/2000/svg">
<rect opacity="0.6" width="76" height="76" rx="38" fill="#D2DDE7"/>
<g clip-path="url(#clip0_46_1036)">
<path d="M3.98314 33.1153L4.61688 32.3483C4.67463 32.2772 4.70572 32.1899 4.7072 32.1025L5.3479 30.7123L33.5605 33.5487L59.5579 46.252L65.4172 50.9788L58.7882 50.4914H2.8621V41.1155V36.2307C2.86225 35.0935 3.25908 33.9919 3.98314 33.1153Z" fill="#A79BA7"/>
<path d="M25.539 20.5071L55.3322 35.058L58.6559 38.7923L27.2754 34.9312L22.9537 22.8272C22.3823 21.243 24.0274 19.7682 25.539 20.5071Z" fill="#A79BA7"/>
<path d="M47.3813 35.8879L23.4427 24.1964L22.9539 22.8274C22.3823 21.243 24.0274 19.7682 25.5392 20.5071L55.3324 35.058L58.6561 38.7923L56.8968 38.5758L47.3813 35.8879Z" fill="#918291"/>
<path d="M4.6361 31.8596C4.68644 31.9322 4.71161 32.0181 4.70717 32.1025L9.00861 35.058C12.3343 37.3945 16.495 38.2104 20.4559 37.3042L23.5225 36.6023C31.1392 34.8595 39.1365 36.4661 45.4916 41.0133L56.1379 48.633L58.7883 50.4913H74.3002V48.633V44.7654C74.3002 42.192 72.5914 39.9324 70.1142 39.2335L55.3324 35.058L30.5943 28.0039C29.0025 27.5508 27.3086 27.5982 25.7465 28.1416L24.9647 28.414L22.979 29.1041C19.2343 30.4071 15.0899 29.797 11.8797 27.4708L9.80671 25.9679C9.25737 25.5711 8.51109 25.5903 7.98396 26.0168L4.31923 28.9782C3.70473 29.4742 3.58035 30.3627 4.03642 31.0082L4.6361 31.8596Z" fill="#FEE45A"/>
<path d="M66.3491 49.463V45.5954C66.3491 43.0219 64.6404 40.7624 62.1632 40.0635L47.3813 35.8879L32.1425 28.4454L55.3323 35.058L70.1141 39.2335C72.5913 39.9324 74.3 42.192 74.3 44.7654V48.633V50.4913H66.349V49.463H66.3491Z" fill="#FEDF30"/>
<path d="M15.5714 37.4323C17.9625 36.8851 20.391 36.6685 22.7944 36.7689L20.456 37.3042C18.7135 37.7028 16.9325 37.7679 15.2008 37.5171L15.5714 37.4323Z" fill="#FEDF30"/>
<path d="M2.3336 41.7071C1.55209 42.4603 1.11069 43.499 1.11069 44.5844V51.1035C1.11069 53.6341 3.16221 55.6855 5.69273 55.6855H9.35465C9.59571 55.6855 9.82685 55.5897 9.99728 55.4193L10.8016 54.615C11.1462 54.2704 11.7048 54.2704 12.0494 54.615L12.7902 55.3558C12.9606 55.5262 13.1917 55.622 13.4328 55.622H28.3558C28.6648 55.622 28.9626 55.5069 29.1913 55.2992L30.1428 54.4348C30.3421 54.2538 30.6015 54.1536 30.8707 54.1536H33.0706C33.3395 54.1536 33.5986 54.2537 33.7978 54.4342L34.7217 55.2721C34.9504 55.4794 35.2478 55.5942 35.5564 55.5942H61.2385C65.4311 55.5942 69.5308 54.3589 73.0256 52.0427L74.6261 50.9821C74.7906 50.8729 74.8896 50.6887 74.8896 50.4914V49.2217C74.8896 48.8965 74.6261 48.6329 74.3009 48.6329H41.6414C40.9274 48.6329 40.2184 48.5149 39.5428 48.2838L29.8531 44.968C29.0769 44.7024 28.262 44.5669 27.4416 44.5669H10.6091C9.29009 44.5669 8.01402 44.0986 7.00833 43.2452L5.09245 41.6197C4.2868 40.9361 3.09424 40.9738 2.3336 41.7071Z" fill="#EFEDEF"/>
<path d="M1.56303 40.9075C1.62404 40.8487 1.68785 40.7945 1.75211 40.7415V36.231C1.75211 34.839 2.24045 33.4815 3.12679 32.4087L3.41672 32.0578L3.12843 31.6488C2.33833 30.5288 2.55466 28.9761 3.62077 28.1145L7.2855 25.1527C8.20042 24.4131 9.50522 24.3787 10.4578 25.0692L12.521 26.5638C13.0176 26.9237 13.1286 27.6179 12.7687 28.1147C12.4089 28.6113 11.7143 28.7223 11.2178 28.3624L9.15459 26.8675C9.01229 26.7647 8.81788 26.7697 8.68166 26.8799L5.01707 29.8418C4.85804 29.9703 4.82576 30.2017 4.94362 30.3687L5.5433 31.2194C5.56315 31.2475 9.64677 34.1493 9.64677 34.1493C12.7099 36.3009 16.5596 37.0568 20.2083 36.2214L23.2747 35.5198C30.166 33.9434 37.3559 34.9822 43.5196 38.4454C44.0543 38.7458 44.2443 39.4229 43.9438 39.9576C43.7401 40.3202 43.3631 40.5244 42.9747 40.5243C42.7905 40.5243 42.6038 40.4784 42.4317 40.3817C36.7501 37.1894 30.1227 36.2319 23.7703 37.685L20.7039 38.3866C16.4426 39.3615 11.9472 38.4794 8.37011 35.9665L5.01543 33.61L4.83938 33.8232C4.28101 34.4989 3.97346 35.3541 3.97346 36.231V40.0256C4.62823 40.0697 5.27382 40.317 5.81131 40.7729L7.72704 42.3986C8.53107 43.0807 9.55468 43.4565 10.6094 43.4565H27.4416C28.3861 43.4565 29.3185 43.6117 30.2124 43.9176L39.902 47.2329C40.4633 47.4249 41.0483 47.5222 41.6412 47.5222H52.6786L46.2785 42.9418C45.7796 42.585 45.6647 41.8913 46.0217 41.3924C46.3786 40.8939 47.0723 40.7788 47.5711 41.1358L56.495 47.5222H73.1902V44.7658C73.1902 42.6991 71.8013 40.8637 69.8124 40.302L68.5041 39.9324C67.9139 39.7657 67.5705 39.152 67.7372 38.5618C67.9038 37.9716 68.5177 37.6285 69.1078 37.7949L70.4161 38.1645C73.3572 38.9949 75.4113 41.7094 75.4113 44.7656V47.9382C75.7711 48.2501 76 48.7093 76 49.2216V50.4912C76 51.0626 75.7157 51.5922 75.2395 51.9076L73.639 52.9684C69.9509 55.4127 65.6628 56.7047 61.2384 56.7047H35.5565C34.9708 56.7047 34.4093 56.4879 33.9759 56.0946L33.0598 55.2641H30.8815L29.938 56.1213C29.5039 56.5154 28.942 56.7326 28.3556 56.7326H13.4326C12.8932 56.7326 12.3862 56.5225 12.0046 56.1413L11.4252 55.5617L10.7823 56.2048C10.4009 56.5861 9.89391 56.796 9.35434 56.796H5.69241C2.55347 56.796 -0.000144958 54.2424 -0.000144958 51.1035V44.5844C0 43.2048 0.569778 41.8646 1.56303 40.9075ZM5.69256 54.575H9.27112L10.0164 53.8296C10.7931 53.0528 12.0574 53.0529 12.8344 53.8297L13.5161 54.5116H28.3557C28.3888 54.5116 28.4203 54.4994 28.4447 54.4774L29.3965 53.6127C29.8011 53.2454 30.3248 53.043 30.8709 53.043H33.0707C33.6164 53.043 34.1394 53.2448 34.5439 53.6116L35.4681 54.4497C35.4923 54.4716 35.5237 54.4836 35.5565 54.4836H35.9706V53.517C35.9706 52.9035 36.4676 52.4065 37.0811 52.4065C37.6945 52.4065 38.1916 52.9035 38.1916 53.517V54.4836H40.7982V53.517C40.7982 52.9035 41.2955 52.4065 41.9088 52.4065C42.5221 52.4065 43.0193 52.9035 43.0193 53.517V54.4836H45.6259V53.517C45.6259 52.9035 46.1231 52.4065 46.7364 52.4065C47.3497 52.4065 47.847 52.9035 47.847 53.517V54.4836H50.4534V53.517C50.4534 52.9035 50.9507 52.4065 51.564 52.4065C52.1773 52.4065 52.6745 52.9035 52.6745 53.517V54.4836H55.2811V53.517C55.2811 52.9035 55.7783 52.4065 56.3917 52.4065C57.005 52.4065 57.5022 52.9035 57.5022 53.517V54.4836H60.1088V53.517C60.1088 52.9035 60.606 52.4065 61.2193 52.4065C61.8326 52.4065 62.3299 52.9035 62.3299 53.517V54.4512C63.2081 54.4041 64.0787 54.3036 64.9365 54.1447V53.5171C64.9365 52.9037 65.4337 52.4066 66.047 52.4066C66.6603 52.4066 67.1575 52.9037 67.1575 53.5171V53.5996C69.0068 53.0336 70.7753 52.202 72.4123 51.1171L73.7789 50.2112V49.7434H41.6412C40.8033 49.7434 39.9763 49.6059 39.1831 49.3345L29.4934 46.0187C28.8313 45.7922 28.141 45.6773 27.4417 45.6773H10.6092C9.02888 45.6773 7.49487 45.1142 6.28988 44.0919L4.37415 42.4662C4.00159 42.1505 3.45581 42.1677 3.10414 42.5065C2.54296 43.0473 2.22105 43.8046 2.22105 44.5841V48.6662H8.3479C8.96136 48.6662 9.45843 49.1633 9.45843 49.7767C9.45843 50.3902 8.96136 50.8873 8.3479 50.8873H2.22105V51.1032C2.22105 53.0177 3.77846 54.575 5.69256 54.575Z" fill="black"/>
<path d="M64.251 38.6879C64.151 38.6879 64.0494 38.6743 63.9486 38.6459L30.2893 29.0724C28.91 28.6793 27.4653 28.72 26.1106 29.1913L23.3439 30.1535C20.9481 30.9867 18.3775 31.1141 15.9099 30.5235C15.3135 30.3806 14.9456 29.7812 15.0885 29.1848C15.2314 28.5884 15.8307 28.2204 16.4272 28.3634C18.4808 28.8553 20.6201 28.749 22.6143 28.0556L23.5432 27.7325L21.9095 23.2038C21.4949 22.0549 21.8145 20.7854 22.7235 19.9696C23.6328 19.1535 24.9293 18.973 26.0268 19.5091L30.5157 21.7016C30.7957 21.2096 31.4094 21.0023 31.9357 21.239C32.4838 21.4859 32.733 22.122 32.506 22.6737L34.0843 23.4446C34.3495 22.9145 34.9871 22.683 35.532 22.9282C36.0911 23.18 36.3406 23.8375 36.089 24.3968L36.0791 24.4189L37.6535 25.1878L37.6596 25.1745C37.9113 24.6152 38.5691 24.3654 39.128 24.6176C39.6873 24.8691 39.9366 25.5267 39.6851 26.086L39.6504 26.1631L55.7307 34.0171L64.5521 36.5083C65.1423 36.6751 65.4857 37.2887 65.319 37.8789C65.1808 38.3684 64.7356 38.6879 64.251 38.6879ZM25.052 21.5048C24.6343 21.3009 24.3219 21.5195 24.2068 21.6227C24.0918 21.7259 23.8411 22.0133 23.9987 22.4501L25.6428 27.0079C27.3551 26.4687 29.1659 26.4424 30.8983 26.9363L43.5715 30.55L38.6843 28.163C38.4736 28.3897 38.178 28.5189 37.8712 28.5189C37.7188 28.5189 37.564 28.4874 37.416 28.4207C36.9478 28.2102 36.6982 27.715 36.7765 27.2313L35.1295 26.4268C34.9174 26.6828 34.6026 26.8297 34.2753 26.8297C34.123 26.8297 33.9681 26.7982 33.8202 26.7317C33.3321 26.512 33.0801 25.9831 33.1913 25.4802L31.5705 24.6886C31.3592 24.9746 31.0267 25.1407 30.6793 25.1407C30.5269 25.1407 30.3722 25.1092 30.2243 25.0427C29.7167 24.8142 29.4657 24.2518 29.6114 23.7318L25.052 21.5048Z" fill="black"/>
<path d="M12.8858 48.6666H23.2586C23.872 48.6666 24.3691 49.1636 24.3691 49.7771C24.3691 50.3905 23.872 50.8876 23.2586 50.8876H12.8858C12.2723 50.8876 11.7753 50.3905 11.7753 49.7771C11.7753 49.1636 12.2725 48.6666 12.8858 48.6666Z" fill="black"/>
</g>
<defs>
<clipPath id="clip0_46_1036">
<rect width="76" height="76" fill="white" transform="matrix(-1 0 0 1 76 0)"/>
</clipPath>
</defs>
</svg>
