<svg width="76" height="78" viewBox="0 0 76 78" fill="none" xmlns="http://www.w3.org/2000/svg">
<rect opacity="0.6" y="2" width="76" height="76" rx="38" fill="#D2DDE7"/>
<g clip-path="url(#clip0_46_1041)">
<path d="M74.8821 47.5133C74.8821 45.4858 75.1935 43.1353 74.3755 41.2301C73.7152 39.6923 72.421 38.4607 70.8537 37.8738C69.1355 37.2305 67.4215 37.6394 65.6549 37.7594C57.2498 38.3303 48.7783 35.8757 41.9714 30.9143C40.8001 30.0607 39.6997 29.124 38.6225 28.1562C37.9146 27.5201 37.0172 26.3188 36.1513 25.936C35.6931 25.7334 35.8521 25.6852 35.3173 26.171C34.513 26.9015 33.6842 27.6043 32.832 28.2784C31.1919 29.5759 29.4671 30.766 27.6714 31.838C20.7321 35.9808 12.8522 38.2412 4.78903 38.5715C3.94175 38.6062 2.19983 38.3227 1.48511 38.8781C0.739356 39.4579 1.11327 41.4356 1.11327 42.2373C1.11327 44.0697 1.11327 45.9021 1.11327 47.7345L74.8821 47.5133Z" fill="#7FDECF"/>
<path d="M5.65591 43.009V38.5305C5.45879 38.5408 5.26196 38.5528 5.06454 38.5607L2.0284 38.6812C1.51733 38.7015 1.11328 39.1226 1.11328 39.6353V43.009V47.7345L5.65591 47.7209V43.009Z" fill="#24BFB2"/>
<path d="M1.11328 43.009V47.1596C1.11328 49.8444 2.76866 52.3368 5.24949 53.3694C5.73177 53.5701 6.59701 53.944 7.13435 53.8028C7.7523 53.6404 7.66472 53.2013 7.77308 52.7263C7.90252 52.1584 8.08866 51.6678 8.73466 51.5547C9.42088 51.4346 10.0672 51.9729 10.0672 52.678C9.94413 54.2484 11.6951 53.8791 12.7643 53.88C13.8134 53.8809 15.9843 54.3549 15.8466 52.7262C15.8466 51.2262 18.1407 51.1648 18.1407 52.6781C18.0405 54.1781 19.4909 53.8824 20.5142 53.8824C21.5154 53.8824 22.7138 54.067 23.6871 53.7984C24.8029 53.4904 25.8229 52.8503 26.968 52.5582C28.1112 52.2665 29.2864 52.1074 30.4661 52.0852C32.9135 52.0392 35.3605 52.5896 37.5519 53.6814C37.7564 53.8027 37.9948 53.8824 38.2339 53.8824C38.7487 53.8813 39.6015 54.0774 39.9932 53.6541C40.3149 53.3063 40.1376 52.926 40.2364 52.5242C40.5528 51.2359 42.511 51.1234 42.511 52.629C42.4506 53.6752 43.091 53.8778 44.0119 53.8781C45.0992 53.8784 46.3061 54.0295 47.382 53.8779C48.6048 53.7057 48.0084 52.9204 48.4392 52.1405C48.9965 51.1314 50.5845 51.5037 50.5845 52.6783C50.4137 54.5826 53.9536 53.8825 55.1491 53.8825C55.9608 53.8825 56.6758 54.0354 56.9621 53.1139C57.1331 52.5637 57.0672 52.0575 57.7735 51.8357C58.4942 51.6095 59.2563 52.1756 59.2563 52.9331C59.1244 54.5112 63.5002 53.8784 64.5099 53.8781C64.9325 53.8779 65.5338 53.9898 65.8585 53.6526C66.1485 53.3513 66.0214 52.938 66.1763 52.5864C66.6609 51.4853 68.3765 51.6925 68.3765 52.9842C68.3782 54.9268 71.8708 52.9304 72.5292 52.3906C73.9817 51.1998 74.8741 49.3978 74.8823 47.5135H74.8869C23.7004 47.5134 43.658 43.009 1.11328 43.009Z" fill="#23AF9E"/>
<path d="M7.89316 52.1987C6.50186 50.9672 5.6243 49.1662 5.6243 47.1595V43.0276C4.20256 43.0156 2.70245 43.009 1.11328 43.009V47.1596C1.11328 50.5424 3.60673 53.3407 6.85217 53.8116C7.33727 53.8819 7.77308 53.5062 7.77308 53.0151L7.77293 52.7265C7.77293 52.5393 7.81657 52.3597 7.89316 52.1987Z" fill="#20A08D"/>
<path d="M24.19 30.5097C23.02 30.3733 22.1361 30.6548 21.0415 30.0378C20.6992 29.8448 20.3734 29.6144 20.0416 29.4043C18.6251 28.5067 17.2085 27.6091 15.7918 26.7115C13.4587 25.233 11.1256 23.7547 8.79227 22.2763C8.31192 21.9741 7.6781 22.1192 7.37647 22.6005L5.81327 25.095C5.51165 25.5764 5.65652 26.2115 6.13687 26.5137C9.13798 28.4154 12.1392 30.3171 15.1403 32.2188C16.2388 32.9148 17.3994 33.5602 18.4558 34.3196C19.755 35.2534 19.8253 36.9517 21.0771 37.9569C22.3363 38.9681 24.1164 39.1634 25.5632 38.4397C29.1824 36.6289 28.2386 30.982 24.19 30.5097Z" fill="#31B9E8"/>
<path d="M25.6812 38.267C24.3585 38.4989 22.7815 38.3043 21.8095 37.291C20.7057 36.1404 21.1877 34.2555 19.7237 33.3279L11.1165 27.7964C9.3335 26.6665 8.53223 24.4764 9.0724 22.4538L8.79215 22.2763C8.3118 21.9741 7.67797 22.1192 7.37635 22.6005L5.81315 25.095C5.51153 25.5764 5.6564 26.2115 6.13675 26.5137C9.13786 28.4154 12.1391 30.3171 15.1402 32.2188C16.2388 32.915 17.3991 33.5604 18.4557 34.3196C19.716 35.2252 19.79 36.8472 20.9505 37.8553C22.3121 39.038 24.3399 39.2086 25.8804 38.2615C25.8145 38.2646 25.7471 38.2554 25.6812 38.267Z" fill="#2BA3E9"/>
<path d="M25.8596 34.6804C25.8596 37.4747 21.5262 37.4747 21.5262 34.6804C21.5264 31.8885 25.8596 31.8822 25.8596 34.6804Z" fill="#7FDECF"/>
<path d="M75.9955 47.4241V43.6889C75.9955 41.5808 75.0877 39.5749 73.5049 38.1857C71.9261 36.8 69.8269 36.1614 67.746 36.434C64.9163 36.8043 62.0452 36.826 59.2125 36.499C58.6033 36.4276 58.0495 36.8664 57.9788 37.4772C57.9081 38.0879 58.3462 38.6404 58.957 38.7109C61.9704 39.0591 65.0247 39.0356 68.0348 38.6418C69.4808 38.452 70.939 38.8966 72.0361 39.8592C73.1374 40.8258 73.769 42.2217 73.769 43.689V46.3992C61.7932 46.3836 49.6497 46.4078 37.7766 44.6176C35.1447 44.2209 32.5277 43.7304 29.8941 43.3437C29.2854 43.2544 28.7204 43.6755 28.6309 44.2836C28.5417 44.8921 28.9625 45.4575 29.5708 45.5469C31.0027 45.7569 32.2872 45.9735 33.6472 46.2028C40.6023 47.3757 47.7892 48.588 73.645 48.6256C73.1224 50.9914 71.01 52.7688 68.4992 52.7688H68.3427V51.4792C68.3427 50.0464 66.1161 50.0441 66.1161 51.4792V52.7688H59.2226V51.4792C59.2226 50.0464 56.996 50.0441 56.996 51.4792V52.7688H50.551V51.4792C50.551 50.0464 48.3244 50.0441 48.3244 51.4792V52.7688H42.4773V51.4792C42.4773 50.0464 40.2508 50.0441 40.2508 51.4792V52.7688H38.2339C38.2229 52.7688 38.2123 52.7663 38.2023 52.7614L38.0482 52.6845C33.4232 50.3804 27.9146 50.4074 23.3127 52.7569C23.2958 52.7657 23.2824 52.7686 23.2754 52.7686H18.107V51.479C18.107 50.0463 15.8804 50.0439 15.8804 51.479V52.7686H10.0333V51.479C10.0333 50.0463 7.80677 50.0439 7.80677 51.479V52.7682C4.72848 52.7603 2.22656 50.2476 2.22656 47.1596V44.1233C12.16 44.1422 19.4232 44.4168 25.0196 44.9831C25.6311 45.0466 26.1774 44.5994 26.2393 43.9875C26.4104 42.2956 23.2342 42.5785 22.1617 42.4976C20.2653 42.3546 18.366 42.2499 16.4659 42.1687C11.7227 41.9662 6.97374 41.9058 2.22656 41.8969V39.7876L5.10862 39.6732C9.83755 39.4853 14.4939 38.6153 18.9669 37.0874C20.2261 39.558 23.2884 40.6714 25.8302 39.54C28.4476 38.3749 29.7035 35.2417 28.5704 32.594C31.1612 31.0194 33.6091 29.2033 35.8661 27.1762L38.3757 29.431C42.7141 33.3285 47.9826 36.1852 53.6116 37.6923C54.1927 37.8478 54.8189 37.4874 54.975 36.9047C55.134 36.3108 54.7815 35.7004 54.1874 35.5413C48.8956 34.1244 43.9424 31.4388 39.8639 27.7746L36.6937 24.9265C36.2101 24.4919 35.4862 24.4983 35.0099 24.9416C32.6447 27.1458 30.046 29.1012 27.2794 30.7702C25.9616 29.5564 24.0743 29.0845 22.3406 29.5431L15.4632 25.1854C14.2528 24.4189 13.0592 26.2979 14.2714 27.0661L20.1109 30.7662C19.4269 31.3948 18.9074 32.2001 18.6258 33.1094L6.80037 25.6164L8.27346 23.2656L10.431 24.6328C10.9507 24.962 11.6384 24.8078 11.9673 24.2884C12.2966 23.769 12.1422 23.0811 11.623 22.752L9.38526 21.334C8.90091 21.0291 8.3269 20.9315 7.76966 21.0591C7.21169 21.1865 6.73713 21.524 6.43313 22.0091L4.86994 24.5038C4.24338 25.5036 4.54575 26.828 5.54102 27.4541L17.7047 35.1616C13.6019 36.507 9.34295 37.2764 5.0203 37.4481L1.94186 37.5704C0.852922 37.6136 0 38.5019 0 39.5926V43.009V47.1596C0 51.4803 3.50877 54.9955 7.82162 54.9955H23.2753C23.6351 54.9955 23.9982 54.9072 24.325 54.7402C28.3006 52.7106 33.0597 52.6871 37.0553 54.6775L37.2094 54.7544C37.526 54.9122 37.8802 54.9955 38.2338 54.9955H68.499C72.5781 54.9955 75.9178 51.7002 75.9941 47.6272C76.0015 47.5595 76.0019 47.4918 75.9955 47.4241ZM26.7706 34.6803C26.7706 38.6822 20.6156 38.6335 20.6156 34.6803C20.6156 30.7306 26.7706 30.6725 26.7706 34.6803Z" fill="black"/>
<path d="M41.2371 34.6804C41.2371 33.2007 38.943 33.2046 38.943 34.6804C38.943 36.1545 41.2371 36.1693 41.2371 34.6804Z" fill="black"/>
<path d="M37.0074 31.2402C37.0074 29.7605 34.7133 29.7644 34.7133 31.2402C34.7134 32.7143 37.0074 32.7291 37.0074 31.2402Z" fill="black"/>
<path d="M45.2136 36.3126C43.7364 36.3126 43.7401 38.6116 45.2136 38.6116C46.6854 38.6116 46.7001 36.3126 45.2136 36.3126Z" fill="black"/>
<path d="M36.2428 42.9986C37.72 42.9986 37.7161 40.6996 36.2428 40.6996C34.771 40.6998 34.7563 42.9986 36.2428 42.9986Z" fill="black"/>
<path d="M42.5111 44.1483C43.9883 44.1483 43.9846 41.8493 42.5111 41.8493C41.0392 41.8493 41.0248 44.1483 42.5111 44.1483Z" fill="black"/>
<path d="M50.4071 38.4008C48.9299 38.4008 48.9338 40.6998 50.4071 40.6998C51.8791 40.6998 51.8936 38.4008 50.4071 38.4008Z" fill="black"/>
<path d="M55.9308 42.06C57.4081 42.06 57.4043 39.761 55.9308 39.761C54.4589 39.7609 54.4443 42.06 55.9308 42.06Z" fill="black"/>
<path d="M62.7272 41.2681C62.7272 39.7885 60.4331 39.7924 60.4331 41.2681C60.4331 42.7423 62.7272 42.757 62.7272 41.2681Z" fill="black"/>
<path d="M68.3765 41.2628C68.3765 39.7832 66.0824 39.787 66.0824 41.2628C66.0824 42.7368 68.3765 42.7516 68.3765 41.2628Z" fill="black"/>
<path d="M46.9732 42.9986C48.4505 42.9986 48.4468 40.6996 46.9732 40.6996C45.5015 40.6998 45.4868 42.9986 46.9732 42.9986Z" fill="black"/>
<path d="M52.7013 44.7037C54.1785 44.7037 54.1746 42.4047 52.7013 42.4047C51.2295 42.4047 51.2148 44.7037 52.7013 44.7037Z" fill="black"/>
<path d="M58.5448 45.023C60.0221 45.023 60.0184 42.724 58.5448 42.724C57.0731 42.7241 57.0585 45.023 58.5448 45.023Z" fill="black"/>
<path d="M65.6564 44.0524C65.6564 42.5727 63.3623 42.5766 63.3623 44.0524C63.3623 45.5265 65.6564 45.5413 65.6564 44.0524Z" fill="black"/>
<path d="M71.927 44.0524C71.927 42.5727 69.6329 42.5766 69.6329 44.0524C69.6328 45.5265 71.927 45.5413 71.927 44.0524Z" fill="black"/>
<path d="M40.6815 40.4507C42.1588 40.4507 42.1549 38.1517 40.6815 38.1517C39.2096 38.1517 39.1951 40.4507 40.6815 40.4507Z" fill="black"/>
<path d="M33.9487 36.7797C33.9487 38.2593 36.2428 38.2555 36.2428 36.7797C36.2428 35.3056 33.9487 35.2909 33.9487 36.7797Z" fill="black"/>
</g>
<defs>
<clipPath id="clip0_46_1041">
<rect width="76" height="76" fill="white"/>
</clipPath>
</defs>
</svg>
