<svg width="76" height="78" viewBox="0 0 76 78" fill="none" xmlns="http://www.w3.org/2000/svg">
<rect opacity="0.6" y="2" width="76" height="76" rx="38" fill="#D2DDE7"/>
<g clip-path="url(#clip0_46_1040)">
<path d="M3.2233 47.1748C3.2233 47.1748 4.24634 32.999 5.12315 27.4455C5.66926 23.9871 6.61198 20.9821 7.24566 19.2069C7.6264 18.1404 8.48155 17.312 9.56173 16.9718C15.0324 15.2487 32.2422 10.1732 34.2055 13.8543C36.5438 18.2385 34.4247 21.6729 41.2203 28.4685C43.4945 30.7428 45.8669 32.8488 48.017 34.6447C52.5929 38.4667 58.5488 40.2201 64.4694 39.5172C66.5019 39.2758 68.5382 39.9361 70.0424 41.3241C71.2491 42.4376 72.026 43.9396 72.2375 45.5677L72.8636 50.3871L68.549 55.2824L46.9199 59.1583L11.2612 54.6278L3.2233 47.1748Z" fill="#A79BA7"/>
<path d="M3.22322 47.1748C3.22322 47.1748 4.24626 32.999 5.12308 27.4455C5.66888 23.9887 6.61116 20.9849 7.24469 19.2094C7.62633 18.1401 8.48474 17.3109 9.56759 16.97C15.0449 15.2451 32.2429 10.1746 34.2054 13.8543C36.5437 18.2385 34.4246 21.6729 41.2203 28.4685C42.3926 29.6409 43.5908 30.7674 44.7715 31.8311L45.7402 36.7929C46.0825 38.5465 45.7749 40.3648 44.8746 41.9081C43.4305 44.3838 40.6796 45.795 37.8262 45.524L32.4997 45.018C29.085 44.6936 25.6781 45.7107 23.0002 47.8542L17.6276 52.1544L4.04498 47.9364L3.22322 47.1748Z" fill="#CBC4CC"/>
<path d="M5.12319 27.4455C5.66899 23.9887 6.61112 20.9849 7.2448 19.2094C7.62644 18.1401 8.48485 17.3109 9.5677 16.97C10.0794 16.8088 10.6935 16.6185 11.3877 16.4089C10.785 18.5605 10.0385 21.6597 9.57631 25.1462C8.69949 31.7597 7.67646 48.6415 7.67646 48.6415L8.2092 49.2299L4.04494 47.9367L3.22333 47.1749C3.22333 47.1748 4.24637 32.999 5.12319 27.4455Z" fill="#B5ADB6"/>
<path d="M5.12317 27.4455C5.66897 23.9887 6.61111 20.9849 7.24479 19.2095C7.62642 18.1401 8.48483 17.3109 9.56768 16.97C12.5433 16.0329 18.9779 14.1089 24.5499 13.1363V13.7024C24.5499 19.4009 21.9444 24.7867 17.4763 28.3235C14.182 30.9313 10.1037 32.35 5.90217 32.35H4.51116C4.71348 30.4454 4.92218 28.7187 5.12317 27.4455Z" fill="#FFE177"/>
<path d="M58.2034 55.4325C57.8823 49.86 59.241 44.3815 62.0175 39.6671C62.833 39.6628 63.6515 39.6143 64.4694 39.5172C66.5019 39.2758 68.5382 39.9361 70.0425 41.3241C71.2491 42.4376 72.026 43.9396 72.2376 45.5677L72.8635 50.3871L68.5489 55.2825L58.3005 57.1189L58.2034 55.4325Z" fill="#CBC4CC"/>
<path d="M5.11438 44.7238C12.6237 47.7276 29.6661 53.8875 47.2816 55.7499C59.4593 57.0374 69.5266 52.2725 72.8635 50.3872C73.4305 50.0668 74.1418 50.4205 74.2325 51.0655L74.8775 55.6561C74.9248 55.9935 74.7828 56.3291 74.5088 56.5319C63.3479 64.792 42.4523 63.6052 36.6664 63.0922C35.8062 63.0159 35.1474 62.2942 35.1474 61.4306V61.3525C35.1474 60.517 34.5293 59.8103 33.7012 59.6991L26.7392 58.7639C25.8857 58.6492 25.085 59.2033 24.8914 60.0426L24.6069 61.2768C24.3471 62.4036 23.3412 63.1992 22.1848 63.1914C20.4875 63.1799 6.97623 63.0463 4.19674 63.0164C2.48852 62.998 1.1128 61.6075 1.1128 59.8992V47.4353C1.1131 45.3703 3.1973 43.957 5.11438 44.7238Z" fill="#7A6D79"/>
<path d="M74.7252 54.5719L74.8775 55.6561C74.9248 55.9935 74.7828 56.3291 74.5088 56.5319C63.3479 64.792 42.4523 63.6052 36.6664 63.0922C35.8062 63.0159 35.1474 62.2942 35.1474 61.4306V61.3525C35.1474 60.517 34.5293 59.8103 33.7012 59.6991C39.0399 60.1723 63.1754 60.9011 74.7252 54.5719Z" fill="#685E68"/>
<path d="M33.7014 59.699C33.6843 59.6975 33.6705 59.6955 33.6582 59.6932L33.7014 59.699Z" fill="#685E68"/>
<path d="M5.11435 44.7238C5.86485 45.0241 6.71228 45.3562 7.64432 45.7121V55.5173C7.64432 57.5843 9.29717 59.2688 11.3637 59.3149C12.678 59.3443 18.0303 59.4178 18.0303 59.4178C20.8355 59.4453 23.4394 59.4689 25.1371 59.4803C25.1368 59.4807 25.1366 59.481 25.1363 59.4815C25.0802 59.5642 25.031 59.6525 24.99 59.746C24.9864 59.7542 24.9837 59.7628 24.9803 59.7709C24.9639 59.8101 24.9478 59.8496 24.9343 59.8904C24.9178 59.94 24.9034 59.9908 24.8916 60.0426L24.607 61.2768C24.3472 62.4036 23.3413 63.1992 22.185 63.1914C20.4876 63.1799 17.8755 63.1562 15.0614 63.1287C15.0614 63.1287 6.44836 63.0636 6.41258 63.0624C5.91265 63.0455 5.41286 63.0296 4.19686 63.0164C3.12914 63.0049 2.19147 62.4573 1.63824 61.6313C1.30633 61.1357 1.11292 60.5397 1.11292 59.899V47.4352C1.11307 45.3703 3.19728 43.957 5.11435 44.7238Z" fill="#685E68"/>
<path d="M9.88675 16.87C9.96972 16.844 10.0546 16.8176 10.1419 16.7904C10.152 16.7873 10.1618 16.7842 10.1719 16.781C10.2682 16.7511 10.3677 16.7203 10.4691 16.6892C10.4872 16.6835 10.5056 16.6779 10.524 16.6722C10.6214 16.6423 10.7205 16.6118 10.8222 16.5807C10.829 16.5786 10.8359 16.5765 10.8427 16.5744C10.9542 16.5403 11.0685 16.5055 11.185 16.4702C11.1983 16.4662 11.2118 16.4621 11.2252 16.458C11.2783 16.442 11.3334 16.4254 11.3875 16.4091C10.7848 18.5607 10.0383 21.6597 9.57607 25.1462C9.34228 26.9094 9.09825 29.4024 8.86579 32.1106C7.89056 32.2677 6.90004 32.3502 5.90209 32.3502H4.51108C4.58604 31.6445 4.6619 30.9635 4.7379 30.3208C4.73894 30.3114 4.74012 30.3019 4.74116 30.2926C4.75096 30.2093 4.76091 30.1272 4.7707 30.0453C4.77427 30.015 4.77797 29.9844 4.78168 29.9543C4.79014 29.8844 4.79861 29.8153 4.80707 29.7463C4.81226 29.704 4.81746 29.6616 4.82265 29.6197C4.83022 29.5584 4.83794 29.4978 4.84552 29.4374C4.85145 29.3899 4.85754 29.3427 4.86348 29.2958C4.8706 29.2395 4.87772 29.1837 4.885 29.1284C4.89123 29.08 4.89747 29.0319 4.9037 28.9841C4.91083 28.9301 4.9178 28.8763 4.92492 28.8232C4.93146 28.7736 4.93814 28.7246 4.94467 28.6758C4.9512 28.6275 4.95773 28.5794 4.96411 28.5319C4.97154 28.4782 4.97881 28.4255 4.98608 28.3727C4.99202 28.3305 4.99781 28.2881 5.00375 28.2465C5.01161 28.1908 5.01948 28.1365 5.02735 28.082C5.03284 28.0439 5.03834 28.0054 5.04383 27.9679C5.05259 27.9078 5.06134 27.8491 5.0701 27.7907C5.07455 27.7613 5.07886 27.731 5.08331 27.7019C5.09652 27.6146 5.10973 27.529 5.12294 27.4454C5.66875 23.9886 6.61088 20.9848 7.24456 19.2093C7.62619 18.14 8.4846 17.3108 9.56746 16.9699C9.65088 16.9436 9.73801 16.9163 9.82693 16.8885C9.84682 16.8824 9.86671 16.8762 9.88675 16.87Z" fill="#FFD15B"/>
<path d="M1.77202 44.0948C1.96217 43.966 2.16167 43.8563 2.36696 43.7629C2.7437 38.9913 3.41492 31.1263 4.02352 27.2718C4.38348 24.992 4.90865 22.9091 5.42165 21.1998L3.61681 17.4517C3.21468 16.6164 2.53662 15.9281 1.7076 15.5135C1.15764 15.2386 0.934685 14.5699 1.20974 14.0199C1.48465 13.47 2.15336 13.2472 2.70332 13.5221C3.97128 14.1559 5.00811 15.2085 5.62323 16.4856L6.46354 18.2305C7.04022 17.1321 8.03579 16.2851 9.22759 15.9098C12.1189 14.9992 17.7507 13.3186 22.9854 12.2939C30.2808 10.8658 34.0443 11.1854 35.1883 13.3303C36.0629 14.9701 36.3689 16.4908 36.6649 17.9612C36.7316 18.2925 36.7987 18.6253 36.8729 18.9622L37.4843 18.7886C38.0752 18.6204 38.6914 18.9642 38.8591 19.5558C39.027 20.1473 38.6835 20.7628 38.092 20.9306L37.477 21.1051C37.6654 21.6247 37.8983 22.1634 38.1926 22.7274L38.6972 22.4031C39.2145 22.0706 39.9034 22.2204 40.2356 22.7377C40.5681 23.2548 40.4183 23.9437 39.9012 24.2762L39.3662 24.6201C39.8007 25.2259 40.3119 25.8627 40.9208 26.5383L41.155 26.3045C41.5899 25.8701 42.2949 25.8706 42.7293 26.3058C43.1638 26.7409 43.1632 27.4458 42.728 27.8803L42.4702 28.1377C44.3442 29.9826 46.4456 31.8814 48.731 33.7903C53.044 37.3927 58.7331 39.0769 64.3386 38.4116C66.6981 38.1315 69.0522 38.8949 70.798 40.5059C72.1939 41.7939 73.0974 43.5407 73.3422 45.4243L73.8361 49.2256C73.9664 49.26 74.0949 49.3043 74.2184 49.3651C74.8242 49.6641 75.2419 50.2418 75.3357 50.9105L75.9808 55.5011C76.085 56.2425 75.7749 56.9803 75.172 57.4266C67.136 63.3739 54.3464 64.5763 45.3236 64.5761C41.5273 64.5761 38.396 64.3631 36.569 64.2012C35.1244 64.0731 34.0351 62.882 34.0351 61.4306V61.3525C34.0351 61.0758 33.8281 60.8392 33.5541 60.8024L26.5923 59.8672C26.3047 59.8286 26.0423 60.0117 25.9774 60.2925L25.6927 61.5269C25.3148 63.1657 23.8821 64.3048 22.2034 64.3046H22.1785C20.6604 64.2944 18.2625 64.2733 15.0515 64.242C14.4367 64.2359 13.9432 63.7327 13.9491 63.1179C13.9552 62.5067 14.4524 62.0154 15.0622 62.0154C15.0658 62.0154 15.0696 62.0154 15.0732 62.0154C18.282 62.0467 20.6776 62.0678 22.1935 62.078C22.1966 62.078 22.1997 62.078 22.2028 62.078C22.8377 62.078 23.3799 61.6468 23.523 61.0267L23.8076 59.7924C24.1324 58.3848 25.458 57.4685 26.8884 57.6607L33.8504 58.5959C35.2249 58.7805 36.2615 59.9658 36.2615 61.3526V61.4307C36.2615 61.7203 36.4782 61.958 36.7656 61.9833C39.3329 62.2111 46.1004 62.6678 53.4713 61.9933C62.34 61.1819 69.1653 59.0651 73.7605 55.7009L73.1691 51.4922C70.3411 53.0554 62.0213 57.0821 51.4529 57.0818C50.0607 57.0818 48.6281 57.0119 47.1652 56.8572C29.7618 55.0172 13.0904 49.1132 4.70188 45.7576C4.13752 45.5317 3.52448 45.5978 3.02113 45.9387C2.51673 46.2803 2.22728 46.8258 2.22728 47.4353V59.8991C2.22728 60.9924 3.11671 61.8915 4.20996 61.9032C5.48518 61.9169 5.98215 61.9338 6.50851 61.9516C7.13759 61.973 7.78835 61.9949 9.8779 62.0154C10.4927 62.0215 10.9863 62.5247 10.9803 63.1395C10.9743 63.7506 10.477 64.242 9.86736 64.242H9.85622C7.73965 64.2212 7.07555 64.1986 6.43296 64.177C5.91982 64.1596 5.43531 64.1431 4.18577 64.1296C1.87801 64.1048 0.000572205 62.207 0.000572205 59.8991V47.4353C-2.28882e-05 46.0947 0.662453 44.8461 1.77202 44.0948ZM69.2875 42.1423C68.0207 40.9734 66.3138 40.4195 64.6004 40.6227C63.9558 40.6993 63.3105 40.7468 62.6658 40.7678C62.6568 40.7863 62.6488 40.805 62.6387 40.8233C60.3777 44.8955 59.2259 49.461 59.2743 54.1007C65.0753 52.9885 69.5192 50.919 71.6619 49.7767L71.1337 45.7113C70.9559 44.3444 70.3003 43.0769 69.2875 42.1423ZM47.3986 54.6428C50.8348 55.0062 54.0878 54.8765 57.0507 54.4677C56.9445 49.6893 58.0168 44.9746 60.1777 40.7121C55.4786 40.3508 50.9477 38.5434 47.3031 35.4991C47.0284 35.2696 46.7573 35.0403 46.4876 34.811L46.8329 36.5795C47.2271 38.5994 46.8733 40.691 45.8363 42.469C44.3139 45.0787 41.5013 46.6701 38.5155 46.6699C38.252 46.6699 37.9865 46.6575 37.7209 46.6322L32.3944 46.1262C29.2505 45.8276 26.1612 46.7499 23.6956 48.7234L22.6463 49.5633C29.9854 51.696 38.6492 53.7178 47.3986 54.6428ZM5.52794 43.6902C8.51791 44.8862 13.6726 46.8341 20.0512 48.7886L22.3045 46.9852C25.2238 44.6484 28.8821 43.5562 32.605 43.9097L37.9315 44.4158C40.3441 44.645 42.6921 43.4404 43.9131 41.3471C44.6774 40.0367 44.9384 38.495 44.6476 37.0062L43.75 32.4085C42.7491 31.5005 41.7969 30.6001 40.8941 29.7108L39.2516 31.3506C39.0343 31.5676 38.7497 31.676 38.465 31.676C38.1799 31.676 37.8946 31.567 37.6771 31.3493C37.2426 30.9142 37.2432 30.2093 37.6785 29.7748L39.3436 28.1124C38.6136 27.3083 38.0031 26.5482 37.4901 25.8258L35.5513 27.0719C35.3651 27.1917 35.1565 27.2488 34.9503 27.2488C34.5841 27.2488 34.2255 27.0683 34.0129 26.7373C33.6804 26.2202 33.8302 25.5313 34.3474 25.1988L36.3099 23.9372C35.8879 23.1546 35.5727 22.4172 35.3269 21.7149L32.703 22.4595C32.6015 22.4883 32.4992 22.5021 32.3985 22.5021C31.9133 22.5021 31.4672 22.1824 31.3282 21.6924C31.1603 21.1008 31.5038 20.4853 32.0953 20.3175L34.7266 19.5709C34.6376 19.1725 34.5589 18.783 34.4819 18.4006C34.1933 16.9674 33.9441 15.7296 33.2233 14.378C33.1416 14.2251 32.2801 13.0362 25.6556 14.0802C25.6169 16.1144 25.2706 18.121 24.6163 20.0495C24.4589 20.5132 24.0259 20.8054 23.5621 20.8054C23.4435 20.8054 23.3228 20.7863 23.2043 20.7462C22.622 20.5487 22.3101 19.9166 22.5077 19.3343C23.041 17.7623 23.3458 16.132 23.4187 14.4777C23.4167 14.4782 23.4148 14.4784 23.4129 14.4789C18.2847 15.4828 12.743 17.1368 9.89616 18.0335C9.15575 18.2667 8.55695 18.8453 8.29422 19.5811C7.63798 21.4195 6.74586 24.3063 6.22292 27.619C6.06855 28.5968 5.90957 29.844 5.75223 31.2367H5.90215C9.83574 31.2367 13.7008 29.892 16.7851 27.4506C18.1119 26.4004 19.2774 25.1664 20.2494 23.7828C20.603 23.2798 21.2972 23.1583 21.8002 23.5118C22.3033 23.8652 22.4247 24.5596 22.0711 25.0626C20.9758 26.622 19.6622 28.0127 18.1671 29.1962C14.691 31.9478 10.3351 33.4632 5.902 33.4632H5.51369C5.17065 36.8266 4.85195 40.6036 4.62543 43.4468C4.93137 43.4926 5.23418 43.5726 5.52794 43.6902Z" fill="black"/>
</g>
<defs>
<clipPath id="clip0_46_1040">
<rect width="76" height="76" fill="white" transform="matrix(-1 0 0 1 76 0)"/>
</clipPath>
</defs>
</svg>
