<svg width="175" height="48" viewBox="0 0 175 48" fill="none" xmlns="http://www.w3.org/2000/svg">
<path fill-rule="evenodd" clip-rule="evenodd" d="M21.2045 0H12.7617L0 33.7177L5.47477 39.3156C10.1172 34.8642 16.3598 32.1365 23.2265 32.1365C30.1615 32.1365 36.4615 34.9173 41.1176 39.448L46.5902 33.8529C40.9007 28.2533 33.2907 24.6785 24.8698 24.2651L33.7039 0H25.2611L16.1658 24.9825C14.6083 25.3222 13.0902 25.772 11.6206 26.3234L21.2045 0V0Z" fill="white"/>
<path fill-rule="evenodd" clip-rule="evenodd" d="M23.2271 35.9141C29.1418 35.9141 34.5171 38.273 38.5038 42.1204L32.753 47.9999C30.2408 45.6544 26.8973 44.224 23.2265 44.224C19.6246 44.224 16.338 45.6024 13.8421 47.8703L8.0892 41.9886C12.0617 38.2199 17.3807 35.9141 23.2271 35.9141V35.9141Z" fill="white"/>
<path d="M62.6555 21.2712H69.4408V25.5444H58.313V6.12012H62.6555V21.2706V21.2712ZM127.359 15.4716C128.915 16.489 129.693 17.9507 129.693 19.8559C129.693 21.5394 129.105 22.9083 127.929 23.9626C126.753 25.0169 125.297 25.5444 123.559 25.5444H115.58V6.12012H123.017C124.717 6.12012 126.143 6.63359 127.291 7.65998C128.44 8.68692 129.015 10.0234 129.015 11.6694C129.015 13.2233 128.463 14.4904 127.359 15.471V15.4716ZM123.017 10.2827H119.923V13.7233H123.017C123.505 13.7233 123.903 13.5613 124.211 13.2378C124.519 12.9143 124.672 12.5025 124.672 12.003C124.672 11.5035 124.519 11.0917 124.211 10.7682C123.903 10.4447 123.505 10.2827 123.017 10.2827ZM123.559 21.3824C124.102 21.3824 124.537 21.2114 124.862 20.8689C125.188 20.5264 125.351 20.0777 125.351 19.5229C125.351 18.9681 125.188 18.5195 124.862 18.1769C124.537 17.8344 124.102 17.6635 123.559 17.6635H119.923V21.3818H123.559V21.3824ZM79.8624 11.6705H84.3677L79.3197 25.5449H74.7598L69.7118 11.6705H74.2171L77.0397 20.4297L79.8624 11.6705V11.6705ZM96.9338 23.8106C95.5407 25.2259 93.8401 25.9332 91.8311 25.9332C89.8228 25.9332 88.1221 25.2259 86.7285 23.8106C85.3355 22.3954 84.6387 20.6611 84.6387 18.6077C84.6387 16.5544 85.3355 14.8201 86.7285 13.4048C88.1221 11.9896 89.8228 11.2822 91.8311 11.2822C93.8395 11.2822 95.5407 11.9896 96.9338 13.4048C98.3273 14.8201 99.0235 16.5544 99.0235 18.6077C99.0235 20.6611 98.3273 22.3954 96.9338 23.8106ZM89.6058 20.9661C90.2031 21.5768 90.9447 21.8819 91.8311 21.8819C92.7176 21.8819 93.4597 21.5768 94.0565 20.9661C94.6538 20.356 94.9522 19.5693 94.9522 18.6077C94.9522 17.6456 94.6538 16.8595 94.0565 16.2488C93.4597 15.6381 92.7176 15.333 91.8311 15.333C90.9447 15.333 90.2026 15.6381 89.6058 16.2488C89.009 16.8595 88.7101 17.6456 88.7101 18.6077C88.7101 19.5693 89.0085 20.356 89.6058 20.9661V20.9661ZM109.446 11.6705H113.951L108.903 25.5449H104.343L99.2946 11.6705H103.8L106.623 20.4297L109.445 11.6705H109.446ZM141.581 11.6705H145.651V25.5449H141.581V24.2408C140.622 25.3695 139.274 25.9338 137.537 25.9338C135.745 25.9338 134.217 25.2264 132.95 23.8112C131.683 22.3959 131.05 20.6616 131.05 18.6083C131.05 16.555 131.684 14.8207 132.95 13.4054C134.217 11.9901 135.745 11.2828 137.537 11.2828C139.273 11.2828 140.622 11.8471 141.581 12.9757V11.6717V11.6705ZM136.017 21.0773C136.614 21.688 137.392 21.9931 138.351 21.9931C139.31 21.9931 140.088 21.688 140.685 21.0773C141.282 20.4672 141.581 19.6436 141.581 18.6077C141.581 17.5718 141.282 16.7483 140.685 16.1381C140.088 15.5275 139.31 15.2224 138.351 15.2224C137.392 15.2224 136.614 15.5275 136.017 16.1381C135.419 16.7483 135.121 17.5718 135.121 18.6077C135.121 19.6436 135.419 20.4666 136.017 21.0773ZM153.685 21.6601H159.086V25.5449H148.23V22.7703L153.359 15.5554H148.501V11.6705H158.814V14.4452L153.685 21.6601H153.685ZM170.567 11.6705H174.638V25.5449H170.567V24.2408C169.608 25.3695 168.26 25.9338 166.523 25.9338C164.732 25.9338 163.203 25.2264 161.936 23.8112C160.67 22.3959 160.037 20.6616 160.037 18.6083C160.037 16.555 160.67 14.8207 161.936 13.4054C163.203 11.9901 164.732 11.2828 166.523 11.2828C168.26 11.2828 169.608 11.8471 170.567 12.9757V11.6717V11.6705ZM165.003 21.0773C165.601 21.688 166.378 21.9931 167.337 21.9931C168.297 21.9931 169.074 21.688 169.672 21.0773C170.268 20.4672 170.567 19.6436 170.567 18.6077C170.567 17.5718 170.268 16.7483 169.672 16.1381C169.074 15.5275 168.297 15.2224 167.337 15.2224C166.378 15.2224 165.601 15.5275 165.003 16.1381C164.407 16.7483 164.108 17.5718 164.108 18.6077C164.108 19.6436 164.407 20.4666 165.003 21.0773Z" fill="white"/>
<path d="M63.5802 39.9017H62.2112L59.4525 36.494V39.9017H58.3032V32.7483H59.4525V35.9587L62.1112 32.7483H63.4807L60.6521 36.2331L63.5807 39.9017H63.5802ZM69.6779 32.7483H70.8376L68.6686 38.0624C68.1368 39.3636 67.2745 39.9766 66.0798 39.9017V38.8083C66.4728 38.8491 66.7914 38.7876 67.0346 38.6244C67.2777 38.4607 67.4728 38.1886 67.6193 37.807L65.2907 32.7488H66.4503L68.151 36.5164L69.6785 32.7488L69.6779 32.7483ZM78.394 32.7483V39.9017H77.2447V33.8724H74.3964V39.9017H73.2471V32.7483H78.3945H78.394ZM85.341 32.7483H86.5007L84.3316 38.0624C83.7999 39.3636 82.9375 39.9766 81.7429 39.9017V38.8083C82.1358 38.8491 82.4544 38.7876 82.6976 38.6244C82.9408 38.4607 83.1359 38.1886 83.2823 37.807L80.9537 32.7488H82.1134L83.8141 36.5164L85.3415 32.7488L85.341 32.7483ZM90.1889 32.0331V31.0727H92.9875V32.0331H90.1889ZM93.1078 39.9017V35.015L89.7878 39.9017H88.9101V32.7483H90.0594V37.6025L93.3575 32.7483H94.257V39.9017H93.1078ZM103.703 32.7483H104.863L102.694 38.0624C102.162 39.3636 101.3 39.9766 100.105 39.9017V38.8083C100.498 38.8491 100.817 38.7876 101.06 38.6244C101.303 38.4607 101.498 38.1886 101.645 37.807L99.3159 32.7488H100.476L102.176 36.5164L103.704 32.7488L103.703 32.7483ZM112.549 39.9017H111.18L108.422 36.494V39.9017H107.272V32.7483H108.422V35.9587L111.08 32.7483H112.45L109.621 36.2331L112.55 39.9017H112.549ZM117.487 32.7483C118.147 32.7483 118.698 32.9729 119.142 33.4227C119.585 33.8724 119.806 34.4312 119.806 35.0989C119.806 35.7598 119.585 36.3163 119.142 36.7695C118.698 37.2226 118.147 37.4489 117.487 37.4489H116.058V39.9011H114.909V32.7477H117.488L117.487 32.7483ZM117.487 36.3454C117.827 36.3454 118.107 36.2281 118.327 35.9928C118.547 35.7576 118.657 35.4598 118.657 35.0989C118.657 34.7379 118.547 34.4396 118.327 34.2049C118.107 33.9697 117.827 33.8523 117.487 33.8523H116.058V36.3459H117.487V36.3454ZM126.273 39.9017L125.78 38.4607H122.805L122.316 39.9017H121.066L123.605 32.7483H124.985L127.513 39.9017H126.274H126.273ZM123.185 37.3572H125.402L124.296 34.1283L123.185 37.3572V37.3572ZM129.927 31.9772C129.811 32.0962 129.669 32.156 129.503 32.156C129.336 32.156 129.194 32.0962 129.078 31.9772C128.962 31.8582 128.903 31.713 128.903 31.5431C128.903 31.3727 128.962 31.228 129.078 31.109C129.194 30.99 129.336 30.9302 129.503 30.9302C129.669 30.9302 129.811 30.99 129.927 31.109C130.044 31.228 130.102 31.3727 130.102 31.5431C130.102 31.7135 130.044 31.8582 129.927 31.9772ZM131.826 31.9772C131.71 32.0962 131.568 32.156 131.402 32.156C131.235 32.156 131.093 32.0962 130.977 31.9772C130.861 31.8582 130.802 31.713 130.802 31.5431C130.802 31.3727 130.861 31.228 130.977 31.109C131.093 30.99 131.235 30.9302 131.402 30.9302C131.568 30.9302 131.71 30.99 131.826 31.109C131.943 31.228 132.001 31.3727 132.001 31.5431C132.001 31.7135 131.943 31.8582 131.826 31.9772ZM129.872 32.7488H131.021V39.9023H129.872V32.7488ZM138.179 32.7488H139.328V39.9023H138.179V36.8058H135.18V39.9023H134.031V32.7488H135.18V35.6816H138.179V32.7488ZM145.645 40.0347C144.593 40.0347 143.72 39.6788 143.027 38.9669C142.334 38.2551 141.987 37.3746 141.987 36.3253C141.987 35.276 142.334 34.3954 143.027 33.6836C143.72 32.9718 144.592 32.6159 145.645 32.6159C146.278 32.6159 146.864 32.769 147.4 33.0757C147.936 33.3824 148.354 33.7981 148.654 34.3222L147.654 34.915C147.468 34.5608 147.196 34.2798 146.84 34.0719C146.484 33.8641 146.085 33.7601 145.645 33.7601C144.9 33.7601 144.295 34.0021 143.831 34.4859C143.368 34.9698 143.137 35.5827 143.137 36.3253C143.137 37.0678 143.368 37.6807 143.831 38.1646C144.295 38.6485 144.899 38.8904 145.645 38.8904C146.085 38.8904 146.485 38.7865 146.845 38.5786C147.205 38.3708 147.475 38.0897 147.655 37.7355L148.654 38.3177C148.362 38.8423 147.946 39.2597 147.41 39.5693C146.873 39.8794 146.285 40.0341 145.646 40.0341L145.645 40.0347ZM153.792 35.2011C154.452 35.2011 155.003 35.4274 155.446 35.8805C155.889 36.3337 156.111 36.8907 156.111 37.5511C156.111 38.2188 155.889 38.7775 155.446 39.2273C155.003 39.6771 154.452 39.9017 153.792 39.9017H151.213V32.7483H152.362V35.2005H153.791L153.792 35.2011ZM153.792 38.7982C154.132 38.7982 154.412 38.6809 154.631 38.4457C154.852 38.2104 154.962 37.9126 154.962 37.5517C154.962 37.1907 154.852 36.8924 154.631 36.6577C154.412 36.4225 154.132 36.3052 153.792 36.3052H152.363V38.7988H153.792V38.7982ZM163.997 39.9017H162.628L159.87 36.494V39.9017H158.72V32.7483H159.87V35.9587L162.528 32.7483H163.898L161.069 36.2331L163.998 39.9017H163.997ZM167.506 38.7775H170.605V39.9017H166.357V32.7483H170.555V33.8724H167.507V35.7319H170.305V36.846H167.507V38.7775H167.506ZM173.414 37.6534L173.194 34.7921V32.7483H174.494V34.7921L174.264 37.6534H173.414ZM174.374 39.7995C174.227 39.9492 174.051 40.0246 173.844 40.0246C173.637 40.0246 173.461 39.9498 173.314 39.7995C173.168 39.6497 173.095 39.4692 173.095 39.258C173.095 39.0468 173.166 38.8664 173.31 38.7166C173.453 38.5669 173.631 38.492 173.844 38.492C174.051 38.492 174.227 38.5669 174.374 38.7166C174.52 38.8664 174.594 39.0468 174.594 39.258C174.594 39.4692 174.521 39.6497 174.374 39.7995Z" fill="white"/>
</svg>
