<svg width="175" height="48" viewBox="0 0 175 48" fill="none" xmlns="http://www.w3.org/2000/svg">
<path fill-rule="evenodd" clip-rule="evenodd" d="M21.2045 0H12.7617L0 33.7177L5.47477 39.3156C10.1172 34.8642 16.3598 32.1365 23.2265 32.1365C30.1615 32.1365 36.4615 34.9173 41.1176 39.448L46.5902 33.8529C40.9007 28.2533 33.2907 24.6785 24.8698 24.2651L33.7039 0H25.2611L16.1658 24.9825C14.6083 25.3222 13.0902 25.772 11.6206 26.3234L21.2045 0V0Z" fill="#005EB8"/>
<path fill-rule="evenodd" clip-rule="evenodd" d="M23.227 35.9141C29.1417 35.9141 34.517 38.2731 38.5037 42.1205L32.7529 48C30.2407 45.6545 26.8972 44.2241 23.2264 44.2241C19.6245 44.2241 16.3379 45.6025 13.842 47.8704L8.08911 41.9886C12.0616 38.22 17.3806 35.9141 23.227 35.9141Z" fill="#FFC700"/>
<path d="M62.6554 21.2709H69.4407V25.5441H58.313V6.11984H62.6554V21.2704V21.2709ZM127.359 15.4713C128.915 16.4888 129.693 17.9504 129.693 19.8557C129.693 21.5391 129.105 22.908 127.929 23.9623C126.753 25.0166 125.297 25.5441 123.559 25.5441H115.58V6.11984H123.017C124.717 6.11984 126.143 6.63332 127.291 7.6597C128.44 8.68665 129.015 10.0231 129.015 11.6691C129.015 13.223 128.463 14.4902 127.359 15.4707V15.4713ZM123.017 10.2824H119.922V13.723H123.017C123.505 13.723 123.903 13.561 124.211 13.2375C124.519 12.914 124.672 12.5022 124.672 12.0027C124.672 11.5032 124.519 11.0914 124.211 10.7679C123.903 10.4444 123.505 10.2824 123.017 10.2824ZM123.559 21.3821C124.102 21.3821 124.537 21.2111 124.862 20.8686C125.188 20.5261 125.351 20.0775 125.351 19.5227C125.351 18.9678 125.188 18.5192 124.862 18.1767C124.537 17.8342 124.102 17.6632 123.559 17.6632H119.922V21.3815H123.559V21.3821ZM79.8623 11.6703H84.3676L79.3197 25.5446H74.7597L69.7118 11.6703H74.217L77.0397 20.4295L79.8623 11.6703ZM96.9337 23.8103C95.5407 25.2256 93.84 25.933 91.8311 25.933C89.8227 25.933 88.122 25.2256 86.7285 23.8103C85.3355 22.3951 84.6387 20.6608 84.6387 18.6075C84.6387 16.5541 85.3355 14.8198 86.7285 13.4046C88.122 11.9893 89.8227 11.2819 91.8311 11.2819C93.8394 11.2819 95.5407 11.9893 96.9337 13.4046C98.3273 14.8198 99.0235 16.5541 99.0235 18.6075C99.0235 20.6608 98.3273 22.3951 96.9337 23.8103ZM89.6058 20.9659C90.2031 21.5765 90.9447 21.8816 91.8311 21.8816C92.7175 21.8816 93.4596 21.5765 94.0564 20.9659C94.6537 20.3557 94.9521 19.569 94.9521 18.6075C94.9521 17.6453 94.6537 16.8592 94.0564 16.2485C93.4596 15.6378 92.7175 15.3327 91.8311 15.3327C90.9447 15.3327 90.2025 15.6378 89.6058 16.2485C89.009 16.8592 88.7101 17.6453 88.7101 18.6075C88.7101 19.569 89.0084 20.3557 89.6058 20.9659ZM109.446 11.6703H113.951L108.902 25.5446H104.343L99.2945 11.6703H103.8L106.622 20.4295L109.445 11.6703H109.446ZM141.581 11.6703H145.651V25.5446H141.581V24.2406C140.621 25.3692 139.274 25.9335 137.537 25.9335C135.745 25.9335 134.217 25.2262 132.95 23.8109C131.683 22.3956 131.05 20.6613 131.05 18.608C131.05 16.5547 131.684 14.8204 132.95 13.4051C134.217 11.9899 135.745 11.2825 137.537 11.2825C139.273 11.2825 140.621 11.8468 141.581 12.9755V11.6714V11.6703ZM136.017 21.077C136.614 21.6877 137.392 21.9928 138.351 21.9928C139.31 21.9928 140.088 21.6877 140.685 21.077C141.282 20.4669 141.581 19.6433 141.581 18.6075C141.581 17.5716 141.282 16.748 140.685 16.1379C140.088 15.5272 139.31 15.2221 138.351 15.2221C137.392 15.2221 136.614 15.5272 136.017 16.1379C135.419 16.748 135.121 17.5716 135.121 18.6075C135.121 19.6433 135.419 20.4663 136.017 21.077ZM153.685 21.6598H159.086V25.5446H148.23V22.77L153.359 15.5551H148.501V11.6703H158.814V14.4449L153.685 21.6598H153.685ZM170.567 11.6703H174.638V25.5446H170.567V24.2406C169.608 25.3692 168.26 25.9335 166.523 25.9335C164.732 25.9335 163.203 25.2262 161.936 23.8109C160.67 22.3956 160.037 20.6613 160.037 18.608C160.037 16.5547 160.67 14.8204 161.936 13.4051C163.203 11.9899 164.732 11.2825 166.523 11.2825C168.26 11.2825 169.608 11.8468 170.567 12.9755V11.6714V11.6703ZM165.003 21.077C165.601 21.6877 166.378 21.9928 167.337 21.9928C168.296 21.9928 169.074 21.6877 169.671 21.077C170.268 20.4669 170.567 19.6433 170.567 18.6075C170.567 17.5716 170.268 16.748 169.671 16.1379C169.074 15.5272 168.296 15.2221 167.337 15.2221C166.378 15.2221 165.601 15.5272 165.003 16.1379C164.407 16.748 164.108 17.5716 164.108 18.6075C164.108 19.6433 164.407 20.4663 165.003 21.077Z" fill="#1F1F1F"/>
<path d="M63.5802 39.9018H62.2112L59.4525 36.4941V39.9018H58.3032V32.7484H59.4525V35.9588L62.1112 32.7484H63.4807L60.6521 36.2332L63.5807 39.9018H63.5802ZM69.6779 32.7484H70.8376L68.6686 38.0624C68.1368 39.3637 67.2745 39.9766 66.0798 39.9018V38.8083C66.4728 38.8491 66.7914 38.7877 67.0346 38.6245C67.2777 38.4608 67.4728 38.1887 67.6193 37.8071L65.2907 32.7489H66.4503L68.151 36.5164L69.6785 32.7489L69.6779 32.7484ZM78.394 32.7484V39.9018H77.2447V33.8725H74.3964V39.9018H73.2471V32.7484H78.3945H78.394ZM85.341 32.7484H86.5007L84.3316 38.0624C83.7999 39.3637 82.9375 39.9766 81.7429 39.9018V38.8083C82.1358 38.8491 82.4544 38.7877 82.6976 38.6245C82.9408 38.4608 83.1359 38.1887 83.2824 37.8071L80.9537 32.7489H82.1134L83.8141 36.5164L85.3415 32.7489L85.341 32.7484ZM90.1889 32.0332V31.0727H92.9875V32.0332H90.1889ZM93.1078 39.9018V35.0151L89.7878 39.9018H88.9101V32.7484H90.0594V37.6026L93.3575 32.7484H94.257V39.9018H93.1078ZM103.703 32.7484H104.863L102.694 38.0624C102.162 39.3637 101.3 39.9766 100.105 39.9018V38.8083C100.498 38.8491 100.817 38.7877 101.06 38.6245C101.303 38.4608 101.498 38.1887 101.645 37.8071L99.3159 32.7489H100.476L102.176 36.5164L103.704 32.7489L103.703 32.7484ZM112.549 39.9018H111.18L108.422 36.4941V39.9018H107.272V32.7484H108.422V35.9588L111.08 32.7484H112.45L109.621 36.2332L112.55 39.9018H112.549ZM117.487 32.7484C118.147 32.7484 118.698 32.973 119.142 33.4227C119.585 33.8725 119.806 34.4313 119.806 35.0989C119.806 35.7599 119.585 36.3164 119.142 36.7695C118.698 37.2227 118.147 37.449 117.487 37.449H116.058V39.9012H114.909V32.7478H117.488L117.487 32.7484ZM117.487 36.3455C117.827 36.3455 118.107 36.2281 118.327 35.9929C118.547 35.7577 118.657 35.4599 118.657 35.0989C118.657 34.738 118.547 34.4396 118.327 34.205C118.107 33.9697 117.827 33.8524 117.487 33.8524H116.058V36.346H117.487V36.3455ZM126.273 39.9018L125.78 38.4608H122.805L122.316 39.9018H121.066L123.605 32.7484H124.985L127.513 39.9018H126.274H126.273ZM123.185 37.3573H125.402L124.296 34.1284L123.185 37.3573ZM129.927 31.9773C129.811 32.0963 129.669 32.1561 129.503 32.1561C129.336 32.1561 129.194 32.0963 129.078 31.9773C128.962 31.8583 128.903 31.713 128.903 31.5432C128.903 31.3728 128.962 31.2281 129.078 31.109C129.194 30.99 129.336 30.9303 129.503 30.9303C129.669 30.9303 129.811 30.99 129.927 31.109C130.044 31.2281 130.102 31.3728 130.102 31.5432C130.102 31.7136 130.044 31.8583 129.927 31.9773ZM131.826 31.9773C131.71 32.0963 131.568 32.1561 131.402 32.1561C131.235 32.1561 131.093 32.0963 130.977 31.9773C130.861 31.8583 130.802 31.713 130.802 31.5432C130.802 31.3728 130.861 31.2281 130.977 31.109C131.093 30.99 131.235 30.9303 131.402 30.9303C131.568 30.9303 131.71 30.99 131.826 31.109C131.943 31.2281 132.001 31.3728 132.001 31.5432C132.001 31.7136 131.943 31.8583 131.826 31.9773ZM129.872 32.7489H131.021V39.9023H129.872V32.7489ZM138.179 32.7489H139.328V39.9023H138.179V36.8059H135.18V39.9023H134.031V32.7489H135.18V35.6817H138.179V32.7489ZM145.645 40.0348C144.593 40.0348 143.72 39.6788 143.027 38.967C142.334 38.2552 141.987 37.3746 141.987 36.3253C141.987 35.2761 142.334 34.3955 143.027 33.6837C143.72 32.9718 144.592 32.6159 145.645 32.6159C146.278 32.6159 146.864 32.769 147.4 33.0758C147.936 33.3825 148.354 33.7982 148.654 34.3223L147.654 34.9151C147.468 34.5609 147.196 34.2798 146.84 34.072C146.484 33.8641 146.085 33.7602 145.645 33.7602C144.9 33.7602 144.295 34.0021 143.831 34.486C143.368 34.9699 143.137 35.5828 143.137 36.3253C143.137 37.0679 143.368 37.6808 143.831 38.1647C144.295 38.6485 144.899 38.8905 145.645 38.8905C146.085 38.8905 146.485 38.7865 146.845 38.5787C147.205 38.3709 147.475 38.0898 147.655 37.7356L148.654 38.3178C148.362 38.8424 147.946 39.2598 147.41 39.5693C146.873 39.8794 146.285 40.0342 145.646 40.0342L145.645 40.0348ZM153.792 35.2012C154.452 35.2012 155.003 35.4275 155.446 35.8806C155.889 36.3337 156.111 36.8908 156.111 37.5512C156.111 38.2189 155.889 38.7776 155.446 39.2274C155.003 39.6772 154.452 39.9018 153.792 39.9018H151.213V32.7484H152.362V35.2006H153.791L153.792 35.2012ZM153.792 38.7983C154.132 38.7983 154.412 38.681 154.631 38.4457C154.852 38.2105 154.962 37.9127 154.962 37.5518C154.962 37.1908 154.852 36.8925 154.631 36.6578C154.412 36.4226 154.132 36.3052 153.792 36.3052H152.363V38.7988H153.792V38.7983ZM163.997 39.9018H162.628L159.87 36.4941V39.9018H158.72V32.7484H159.87V35.9588L162.528 32.7484H163.898L161.069 36.2332L163.998 39.9018H163.997ZM167.506 38.7776H170.605V39.9018H166.357V32.7484H170.555V33.8725H167.507V35.732H170.305V36.8461H167.507V38.7776H167.506ZM173.414 37.6534L173.194 34.7922V32.7484H174.494V34.7922L174.264 37.6534H173.414ZM174.374 39.7995C174.227 39.9493 174.051 40.0247 173.844 40.0247C173.637 40.0247 173.461 39.9498 173.314 39.7995C173.168 39.6498 173.095 39.4693 173.095 39.2581C173.095 39.0469 173.166 38.8664 173.31 38.7167C173.453 38.567 173.631 38.4921 173.844 38.4921C174.051 38.4921 174.227 38.567 174.374 38.7167C174.52 38.8664 174.594 39.0469 174.594 39.2581C174.594 39.4693 174.521 39.6498 174.374 39.7995Z" fill="#005EB8"/>
</svg>
